<svg xmlns="http://www.w3.org/2000/svg" xmlns:xlink="http://www.w3.org/1999/xlink" version="1.1" width="1333" height="1333" viewBox="0 0 1333 1333">
    <path d="M 684.5332 250.0625 C 684.27092 250.06493 684.02863 250.08515 683.83398 250.11133 C 677.12053 250.01713 673.22238 254.31686 667.70898 254.00781 C 663.35091 253.7635 657.4997 255.71207 653.13477 258.61914 C 635.54449 260.75795 625.61894 266.61101 622.3418 267.94531 C 620.84286 268.55556 618.33236 266.74921 615.86914 266.97656 C 613.25603 267.21776 611.89659 269.07402 610.67578 269.19141 C 609.5594 269.29875 608.61047 268.30283 604.26758 268.94922 C 600.22942 269.55023 598.29936 272.53619 596.95312 272.20508 C 584.3281 269.0998 569.14431 272.11336 546.59375 275.33398 C 544.68619 275.60643 543.52164 273.72026 540.6582 273.88672 C 537.45878 274.07273 535.98626 275.74883 535.22852 275.7793 C 534.41418 275.812 532.28833 274.26382 529.36328 274.47461 C 527.28986 274.62403 526.0069 276.34484 525 276.5293 C 523.74219 276.75972 502.32342 277.85929 490.69922 280.0625 C 484.80974 281.17874 486.54017 292.00618 490.98828 293.33984 C 495.82218 293.96454 530.66332 286.96027 532.54492 288.41797 C 534.26909 289.75371 533.38729 291.18166 532.63672 292.34766 C 532.1333 293.12966 530.39587 293.59959 529.92383 292.4043 C 528.91095 289.83952 519.79959 287.92347 521.36328 293.62695 C 522.40763 297.43632 526.86821 300.53113 531.54297 299.28516 C 533.62697 298.72971 539.32668 302.78356 541.47461 303.67578 C 547.48874 306.17407 545.71148 306.52998 551.47461 306.79883 C 554.53178 306.94143 555.90253 302.14464 557.86133 299.58594 C 560.0204 297.65177 562.51164 299.48019 564.0332 299.24219 C 566.23807 298.8973 566.25109 297.51354 567.08984 297.5332 C 578.05097 297.79011 592.34927 297.11095 597.41211 296.26758 C 600.23608 295.79717 597.8431 299.01049 600.29102 300.32031 C 602.72808 301.62445 604.15109 299.21914 605.6582 300.05273 C 608.42086 301.58124 605.96058 305.26539 604.97461 307.36719 L 529.04297 437.07812 C 527.74956 438.76692 526.29106 439.72848 524.17969 437.79492 L 517.0293 429.62109 C 516.78194 428.92369 516.63319 428.18801 516.67969 427.37305 C 516.58649 426.18395 516.76439 425.8792 515.88477 424.92188 C 515.02156 423.85804 513.95808 424.05739 512.92578 424.06445 C 512.75523 423.90879 512.56339 423.73014 512.33398 423.51562 L 504.64453 410.49023 L 504.48633 409.75977 C 504.22431 408.55403 504.50611 407.95654 503.58398 406.75781 C 502.78725 405.72177 502.06514 405.51203 500.90625 405.29688 C 500.60354 405.24058 500.36118 405.01444 500.17969 404.77148 L 470.54688 355.55664 C 470.10473 354.89919 470.41904 354.1944 470.95508 353.78516 C 473.94269 351.50424 474.1309 351.10244 475.54102 349.58203 C 479.30026 345.52872 479.06865 339.37007 482.95117 335.95703 C 484.08397 334.96128 485.80266 334.95869 487.16992 334.32227 C 492.90103 331.65353 502.72294 327.647 494.45703 324.41211 C 492.07215 323.47881 490.00501 323.84233 487.87891 324.12695 C 482.57106 324.83742 467.84787 332.48228 460.01953 336.72461 C 449.26272 342.55363 437.57266 342.43209 426.30859 349.14258 C 420.22016 352.76953 422.32822 358.66992 431.5 359.20508 C 436.36615 359.48901 438.4906 357.47826 440.98828 357.54688 C 442.65222 357.59232 446.16933 359.55413 449.09375 359.8457 C 452.18426 359.20008 455.1483 358.8689 458.125 358.50781 C 459.60082 358.69343 460.9995 358.47527 462.15234 359.21875 L 491.85742 408.9043 C 492.76053 410.41482 491.52442 411.84475 492.2793 413.32227 C 495.33914 419.31149 502.23747 428.45522 502.64648 429.63086 C 502.67698 429.71856 502.91319 429.97554 502.66211 430.36914 C 501.96501 431.46171 500.24094 433.50187 500.875 435.08398 C 501.90676 437.65882 505.44911 437.95705 506.33398 438 C 506.45895 438.006 506.62695 438.04102 506.62695 438.04102 L 518.53125 457.88867 C 518.89424 458.49397 518.79439 459.67965 517.98242 459.67383 C 512.1605 459.63212 508.16224 464.58762 503.10352 471.63281 A 3.2980729 4.0543417 88.921305 0 0 499.23633 468.62695 A 3.2980729 4.0543417 88.921305 0 0 499.23633 468.31641 A 3.2980729 4.0543417 88.921305 0 0 495.05273 465.26172 A 3.2980729 4.0543417 88.921305 0 1 495.05273 465.25977 A 3.2980729 4.0543417 88.921305 0 0 490.8418 462.20312 A 3.2980729 4.0543417 88.921305 0 0 486.68164 459.51172 A 3.2986465 4.5213638 87.953952 0 0 486.68555 459.14453 A 3.2986465 4.5213638 87.953952 0 0 481.91016 456.12109 A 3.2986465 4.5213638 87.953952 0 0 480.99805 456.25195 A 3.2980729 4.0543417 88.921305 0 0 476.72852 453.49023 A 3.2980729 4.0543417 88.921305 0 0 474.73438 454.05469 A 3.2980729 4.0543417 88.921305 0 0 474.73633 453.60742 A 3.2980729 4.0543417 88.921305 0 0 470.42773 450.55859 A 3.2980729 4.0543417 88.921305 0 0 468.14844 451.30078 A 2.7848393 3.3372747 89.320473 0 0 468.14844 450.98633 A 2.7848393 3.3372747 89.320473 0 0 464.59766 448.40625 A 2.7848393 3.3372747 89.320473 0 0 462.80859 448.97461 A 2.7848393 3.3372747 89.320473 0 0 459.34766 446.88086 A 2.7848393 3.3372747 89.320473 0 0 456.88672 448.14062 A 2.2723251 3.0247374 88.140011 0 0 456.89062 447.83203 A 2.2723251 3.0247374 88.140011 0 0 453.69141 445.74414 A 2.2723251 3.0247374 88.140011 0 0 451.22656 446.95703 A 2.2723251 3.0247374 88.140011 0 0 448.19727 445.48242 A 2.2723251 3.0247374 88.140011 0 0 445.61133 446.88086 A 2.2723251 3.0247374 88.140011 0 0 442.59961 445.44727 L 442.5957 445.44727 A 2.2723251 3.0247374 88.140011 0 0 440.12891 446.66406 A 2.2723251 3.0247374 88.140011 0 0 437.62891 445.89062 A 2.2723251 3.0247374 88.140011 0 0 435.05664 447.26172 A 2.2723251 3.0247374 88.140011 0 0 432.47852 446.41406 A 2.2723251 3.0247374 88.140011 0 0 429.9043 447.79688 A 2.2723251 3.0247374 88.140011 0 0 427.86328 447.34961 A 2.2723251 3.0247374 88.140011 0 0 425.08984 449.18164 A 2.2723251 3.0247374 88.140011 0 0 422.83594 448.60156 A 2.2723251 3.0247374 88.140011 0 0 420 450.75977 A 2.2723251 3.0247374 88.140011 0 0 418.16602 450.41992 A 2.2723251 3.0247374 88.140011 0 0 415.33008 452.75195 A 2.2723251 3.0247374 88.140011 0 0 413.44531 452.38867 A 2.2723251 3.0247374 88.140011 0 0 410.60938 454.73242 A 2.2723251 3.0247374 88.140011 0 0 410.00586 454.72266 A 2.2723251 3.0247374 88.140011 0 0 407.16797 457.16797 A 2.2723251 3.0247374 88.140011 0 0 407.17578 457.21484 A 2.2723251 3.0247374 88.140011 0 0 405.94336 457.09375 A 2.2723251 3.0247374 88.140011 0 0 403.10547 459.53906 A 2.2723251 3.0247374 88.140011 0 0 403.12305 459.64648 A 2.2723251 3.0247374 88.140011 0 0 402.58203 459.64258 A 2.2723251 3.0247374 88.140011 0 0 399.74414 462.02344 A 2.2723251 3.0247374 88.140011 0 0 397.11914 464.44727 A 2.2723251 3.0247374 88.140011 0 0 397.12109 464.45898 A 2.2723251 3.0247374 88.140011 0 0 394.5625 466.79492 A 2.2723251 3.0247374 88.140011 0 0 392.75 468.99219 A 1.5026019 2.1213202 55.205031 0 0 391.29492 469.48242 A 1.5026019 2.1213202 55.205031 0 0 390.34375 471.73242 A 1.7157074 2.4320445 39.238663 0 0 388.60742 472.54102 A 1.7157074 2.4320445 39.238663 0 0 387.8418 475.41797 A 1.7157074 2.4320445 39.238663 0 0 386.04492 476.22852 A 1.7157074 2.4320445 39.238663 0 0 385.32227 479.17383 A 1.7157074 2.4320445 39.238663 0 0 383.48242 479.97852 A 1.7157074 2.4320445 39.238663 0 0 382.58984 482.52734 A 1.7314743 2.5708437 29.659491 0 0 381.26562 483.37109 A 1.7314743 2.5708437 29.659491 0 0 380.51172 486.51758 A 1.7314743 2.5708437 29.659491 0 0 379.14062 487.37109 A 1.7314743 2.5708437 29.659491 0 0 378.32422 490.35742 A 1.7314743 2.5708437 29.659491 0 0 377.07812 491.18359 A 1.7314743 2.5708437 29.659491 0 0 376.44727 494.54883 A 1.7314743 2.5708437 29.659491 0 0 376.52344 494.63867 A 1.7314743 2.5708437 30.405487 0 0 375.78516 495.23438 A 1.7314743 2.5708437 30.405487 0 0 375.05078 498.48047 A 1.7314743 2.5708437 25.753977 0 0 373.66602 499.44727 A 1.7314743 2.5708437 25.753977 0 0 373.06445 502.49805 A 1.6772788 2.5015345 25.334033 0 0 372.20312 503.23242 A 1.6772788 2.5015345 25.334033 0 0 371.81641 506.54492 A 1.6772788 2.5015345 25.334033 0 0 371.88281 506.59766 A 2.9583215 2.642442 80.754895 0 0 370.60742 509.08984 A 2.9583215 2.642442 80.754895 0 0 371.41797 510.99219 A 3.303459 2.9507271 80.754893 0 0 369.08594 514.4082 A 3.303459 2.9507271 80.754893 0 0 370.29492 516.82617 A 3.303459 2.9507271 80.754893 0 0 368.21875 520.17188 A 3.303459 2.9507271 80.754893 0 0 369.22656 522.39648 A 3.303459 2.9507271 80.754893 0 0 367.16016 525.74023 A 3.303459 2.9507271 80.754893 0 0 368.20117 527.99414 A 3.303459 2.9507271 80.754893 0 0 366.5332 531.17773 A 3.303459 2.9507271 80.754893 0 0 367.40234 533.25977 A 3.303459 2.9507271 80.754893 0 0 366.30664 536.07422 A 3.303459 2.9507271 80.754893 0 0 367.3125 538.25391 C 367.3065 538.34131 367.30291 538.42852 367.29688 538.51562 A 3.303459 2.9507271 80.754893 0 0 365.6875 541.61523 A 3.303459 2.9507271 80.754893 0 0 367.04297 544.01562 C 367.03597 544.26212 367.03344 544.50913 367.02734 544.75586 A 3.303459 2.9507271 80.754893 0 0 365.38281 547.76172 A 3.303459 2.9507271 80.754893 0 0 366.99609 550.33203 C 366.99909 550.59464 367.00301 550.85632 367.00781 551.11914 A 3.303459 2.9507271 80.754893 0 0 365.78125 553.86719 A 3.303459 2.9507271 80.754893 0 0 367.17969 556.29883 C 367.19469 556.57933 367.2046 556.86002 367.2207 557.14062 A 3.303459 2.9507271 80.754893 0 0 366.16406 559.76562 A 3.303459 2.9507271 80.754893 0 0 367.58594 562.26953 C 367.60084 562.4305 367.61175 562.59098 367.62695 562.75195 A 3.303459 2.9507271 80.754893 0 0 366.77734 565.23438 A 3.303459 2.9507271 80.754893 0 0 368.1582 567.73047 C 368.1717 567.83414 368.18156 567.93726 368.19336 568.04102 A 3.303459 2.9507271 80.754893 0 0 367.29492 570.60547 A 3.303459 2.9507271 80.754893 0 0 368.91797 573.21875 C 368.94847 573.41447 368.97251 573.61096 369.00391 573.80664 A 3.303459 2.9507271 80.754893 0 0 368.34961 576.04688 A 3.303459 2.9507271 80.754893 0 0 369.62109 578.51367 A 3.303459 2.9507271 80.754893 0 0 369.15234 580.57031 A 3.303459 2.9507271 80.754893 0 0 370.80664 583.29883 A 3.303459 2.9507271 80.754893 0 0 370.09375 585.70898 A 3.303459 2.9507271 80.754893 0 0 372.04883 588.47656 C 372.10203 588.68651 372.15255 588.89764 372.20703 589.10742 A 3.303459 2.9507271 80.754893 0 0 371.83398 590.90234 A 3.303459 2.9507271 80.754893 0 0 373.40234 593.46289 C 373.47144 593.70389 373.53851 593.94503 373.60938 594.18555 A 3.303459 2.9507271 80.754893 0 0 373.2168 596.01562 A 3.303459 2.9507271 80.754893 0 0 375.01367 598.72266 C 375.06707 598.88826 375.11939 599.05336 375.17383 599.21875 A 3.303459 2.9507271 80.754893 0 0 374.69336 601.22461 A 3.303459 2.9507271 80.754893 0 0 376.86719 604.10156 C 376.91629 604.2354 376.96473 604.37009 377.01367 604.50391 A 3.303459 2.9507271 80.754893 0 0 376.53125 606.51758 A 3.303459 2.9507271 80.754893 0 0 378.94336 609.5 C 378.97666 609.5821 379.00742 609.66584 379.04102 609.74805 A 3.303459 2.9507271 80.754893 0 0 378.69727 611.47852 A 3.303459 2.9507271 80.754893 0 0 380.70703 614.38672 A 3.303459 2.9507271 80.754893 0 0 380.39648 616.15625 A 3.303459 2.9507271 80.754893 0 0 383.27734 619.23242 C 383.31034 619.30012 383.3419 619.36789 383.375 619.43555 A 3.303459 2.9507271 80.754893 0 0 383.23242 620.66211 A 3.303459 2.9507271 80.754893 0 0 385.44141 623.50781 C 385.56685 623.74662 385.69174 623.98449 385.81836 624.22266 A 4.7381366 2.608565 75.195401 0 0 386.09961 626.82812 A 4.7381366 2.608565 75.195401 0 0 389.29688 630.4668 C 389.42677 630.68774 389.55879 630.90719 389.68945 631.12695 A 4.6856575 2.6377809 67.624471 0 0 390.37695 634.16602 A 4.6856575 2.6377809 67.624471 0 0 393.46289 637.17969 A 4.6856575 2.6377809 67.624471 0 0 394.19141 639.85938 A 4.6856575 2.6377809 67.624471 0 0 397.36523 642.82422 C 397.47655 642.97864 397.58565 643.13535 397.69727 643.28906 A 4.6856575 2.6377809 67.624471 0 0 398.39258 645.94727 A 4.6856575 2.6377809 67.624471 0 0 402.02539 648.99609 A 4.6284048 2.6704096 62.021384 0 0 403.13867 652.45898 A 4.6284048 2.6704096 62.021384 0 0 407.10352 654.92578 C 407.10852 654.93078 407.11364 654.93601 407.11914 654.94141 A 4.6284048 2.6704096 62.021384 0 0 408.14648 657.56445 A 4.6284048 2.6704096 62.021384 0 0 411.41406 660.0918 A 4.5304931 2.7281219 54.136842 0 0 412.90234 662.80078 A 4.5304931 2.7281219 54.136842 0 0 416.65039 664.62109 A 4.5304931 2.7281219 54.136842 0 0 418.125 667.26953 A 4.5304931 2.7281219 54.136842 0 0 421.61328 669.12695 A 4.5304931 2.7281219 54.136842 0 0 423.08008 671.75391 A 4.5304931 2.7281219 54.136842 0 0 427.13867 673.48047 A 4.3604547 2.8345066 41.439483 0 0 428.99609 675.44141 A 4.3604547 2.8345066 41.439483 0 0 432.30273 676.36523 A 4.3604547 2.8345066 41.439483 0 0 434.60742 679.26562 A 4.3604547 2.8345066 41.439483 0 0 438.3457 680.06641 A 4.3604547 2.8345066 41.439483 0 0 440.33008 682.25 A 4.3604547 2.8345066 41.439483 0 0 443.68359 683.16016 A 4.1723164 2.9623202 24.397658 0 0 446.41406 685.06445 A 4.1723164 2.9623202 24.397658 0 0 449.35547 685.0957 A 4.1723164 2.9623202 24.397658 0 0 451.94922 686.81445 A 4.1723164 2.9623202 24.397658 0 0 454.67969 686.9082 A 4.1723164 2.9623202 24.397658 0 0 456.93164 688.41992 L 234.22266 726.13281 C 224.19408 727.38431 217.66288 733.24598 216.01953 745.55078 C 217.11464 783.87857 210.1882 960.96257 218.44727 975.52539 L 1140.373 835.55859 L 1141.9902 572.41016 L 867.29688 618.92773 A 5.112099 6.7371051 12.517977 0 0 871.68555 614.86133 C 872.22634 614.41329 872.74158 613.93247 873.27344 613.47266 A 5.112099 6.7371051 12.517977 0 0 877.43945 609.68555 C 877.58828 609.54192 877.73086 609.39067 877.87891 609.24609 A 5.112099 6.7371051 12.517977 0 0 882.85938 604.04492 C 883.09402 603.78296 883.32415 603.51642 883.55664 603.25195 A 5.112099 6.7371051 12.517977 0 0 889.0625 597.19922 A 5.112099 6.7371051 12.517977 0 0 889.125 596.62891 A 5.112099 6.7371051 12.517977 0 0 893.83594 590.6582 A 5.112099 6.7371051 12.517977 0 0 893.89844 589.66406 C 894.05889 589.41795 894.21412 589.16741 894.37305 588.91992 A 5.112099 6.7371051 12.517977 0 0 898.78516 583.05664 A 5.112099 6.7371051 12.517977 0 0 898.8457 581.35547 C 898.92216 581.21693 898.99624 581.07638 899.07227 580.9375 A 5.112099 6.7371051 12.517977 0 0 903.38281 575.10156 A 5.112099 6.7371051 12.517977 0 0 903.2793 572.60742 C 903.44289 572.255 903.61832 571.91084 903.7793 571.55664 A 5.112099 6.7371051 12.517977 0 0 907.625 565.91016 A 5.112099 6.7371051 12.517977 0 0 907.42188 562.82617 C 907.51414 562.58348 907.5963 562.33514 907.6875 562.0918 A 5.112099 6.7371051 12.517977 0 0 911.33789 556.54102 A 5.112099 6.7371051 12.517977 0 0 910.93555 552.46484 C 910.96527 552.36684 910.9978 552.26988 911.02734 552.17188 A 6.0104079 9.280776 7.6510707 0 0 914.85352 544.83008 A 6.0104079 9.280776 7.6510707 0 0 914.34961 539.26758 C 914.4494 538.80503 914.54853 538.34266 914.64453 537.87891 A 6.0104079 9.280776 7.6510707 0 0 918.03711 531.04102 A 6.0104079 9.280776 7.6510707 0 0 916.91797 524.08789 C 916.9761 523.6184 917.03941 523.14982 917.09375 522.67969 A 6.0104079 9.280776 3.0503562 0 0 919.49609 516.06641 A 6.0104079 9.280776 3.0503562 0 0 918.09375 509.85742 C 918.13992 508.74685 918.1938 507.63657 918.21875 506.52539 A 6.0104079 9.280776 3.0503562 0 0 919.49609 501.74609 A 6.0104079 9.280776 3.0503562 0 0 918.10156 495.50977 C 918.06391 494.59803 918.01707 493.68768 917.96484 492.77734 A 9.280776 6.0104079 83.711523 0 0 918.76172 486.98047 A 9.280776 6.0104079 83.711523 0 0 917.00781 481.90625 C 916.90944 481.10698 916.77992 480.31437 916.66992 479.51758 A 9.280776 6.0104079 74.340936 0 0 917.16016 471.875 A 9.280776 6.0104079 74.340936 0 0 914.4375 466.92773 C 914.33065 466.44451 914.20514 465.96801 914.09375 465.48633 A 9.280776 6.0104079 62.02834 0 0 913.14453 456.88867 A 9.280776 6.0104079 62.02834 0 0 911.02539 454.13086 C 910.86436 453.62168 910.68798 453.12001 910.52148 452.61328 A 9.280776 6.0104079 62.02834 0 0 909.43359 444.33789 A 9.280776 6.0104079 62.02834 0 0 905.76758 440.125 C 905.5254 439.575 905.25133 439.04394 905.00195 438.49805 A 9.280776 6.0104079 62.02834 0 0 903.59961 432.14062 A 9.280776 6.0104079 62.02834 0 0 898.93359 427.22656 C 898.84482 427.07627 898.75708 426.92549 898.66797 426.77539 A 9.280776 6.0104079 62.02834 0 0 897.23438 419.76562 A 9.280776 6.0104079 62.02834 0 0 890.54297 414.05273 C 890.51884 414.01761 890.49485 413.98237 890.4707 413.94727 A 9.280776 6.0104079 62.02834 0 0 888.92578 407.92188 A 9.280776 6.0104079 62.02834 0 0 883.64062 402.63867 A 5.7452426 3.9774756 0 0 0 884.14844 401.01758 A 5.7452426 3.9774756 0 0 0 879.40039 397.10156 A 5.7452426 3.9774756 0 0 0 879.72852 395.80273 A 5.7452426 3.9774756 0 0 0 874.62695 391.85156 A 5.7452426 3.9774756 0 0 0 875.13281 390.23438 A 5.7452426 3.9774756 0 0 0 870.75586 386.37305 A 5.7452426 3.9774756 0 0 0 870.80273 385.9043 A 5.7452426 3.9774756 0 0 0 866.61719 382.07617 A 5.7452426 3.9774756 0 0 0 866.64844 381.75 A 5.7452426 3.9774756 0 0 0 861.7207 377.8125 A 5.7452426 3.9774756 0 0 0 861.78711 377.24219 A 5.7452426 3.9774756 0 0 0 856.625 373.28516 A 5.7452426 3.9774756 0 0 0 856.66016 372.91016 A 5.7452426 3.9774756 0 0 0 851.0918 368.93555 A 5.7452426 3.9774756 0 0 1 851.0918 368.93359 A 5.7452426 3.9774756 0 0 0 845.48633 364.95703 A 5.7452426 3.9774756 0 0 0 839.9082 361.42188 A 6.408155 3.9774756 0 0 0 839.95508 360.97852 A 6.408155 3.9774756 0 0 0 833.54688 357 A 6.408155 3.9774756 0 0 0 832.24219 357.09375 A 5.7452426 3.9774756 0 0 0 826.51953 353.46484 A 5.7452426 3.9774756 0 0 0 823.63672 354.00195 A 5.7452426 3.9774756 0 0 0 823.69141 353.46484 A 5.7452426 3.9774756 0 0 0 817.94531 349.48828 A 5.7452426 3.9774756 0 0 0 814.64062 350.2207 A 4.7287765 3.3587573 0 0 0 814.67578 349.8418 A 4.7287765 3.3587573 0 0 0 809.94727 346.48242 A 4.7287765 3.3587573 0 0 0 807.35352 347.04102 A 4.7287765 3.3587573 0 0 0 802.69922 344.27344 A 4.7287765 3.3587573 0 0 0 799.07812 345.61523 A 4.2868347 2.7400389 0 0 0 799.11914 345.24414 A 4.2868347 2.7400389 0 0 0 794.83203 342.50391 A 4.2868347 2.7400389 0 0 0 791.21094 343.78711 A 4.2868347 2.7400389 0 0 0 787.09766 341.79688 A 4.2868347 2.7400389 0 0 0 783.28516 343.29492 A 4.2868347 2.7400389 0 0 0 779.1875 341.35547 A 4.2868347 2.7400389 0 0 0 775.5625 342.64258 A 4.2868347 2.7400389 0 0 0 772.11719 341.5332 A 4.2868347 2.7400389 0 0 0 768.32812 343.00195 A 4.2868347 2.7400389 0 0 0 764.7793 341.79688 A 4.2868347 2.7400389 0 0 0 760.98438 343.27734 A 4.2868347 2.7400389 0 0 0 758.15039 342.59375 A 4.2868347 2.7400389 0 0 0 754.02148 344.60156 A 4.2868347 2.7400389 0 0 0 750.90234 343.74219 A 4.2868347 2.7400389 0 0 0 746.65039 346.13672 A 4.2868347 2.7400389 0 0 0 744.09766 345.59766 A 4.2868347 2.7400389 0 0 0 739.82422 348.20312 A 4.2868347 2.7400389 0 0 0 737.20312 347.63086 A 4.2868347 2.7400389 0 0 0 732.92773 350.25 A 4.2868347 2.7400389 0 0 0 732.07617 350.19531 A 4.2868347 2.7400389 0 0 0 727.78906 352.93555 A 4.2868347 2.7400389 0 0 0 727.79492 352.99219 A 4.2868347 2.7400389 0 0 0 726.06641 352.75781 A 4.2868347 2.7400389 0 0 0 721.7793 355.49805 A 4.2868347 2.7400389 0 0 0 721.79297 355.63086 A 4.2868347 2.7400389 0 0 0 721.02734 355.58594 A 4.2868347 2.7400389 0 0 0 716.74805 358.25 A 4.2868347 2.7400389 0 0 0 712.76367 360.97852 A 4.2868347 2.7400389 0 0 0 712.76562 360.99414 A 4.2868347 2.7400389 0 0 0 708.88477 363.62109 A 4.2868347 2.7400389 0 0 0 706.84375 364.61523 C 706.83222 364.5983 706.83222 364.58348 706.82031 364.56641 C 689.98034 340.40631 671.36104 319.83461 654.90234 293.91211 C 653.7344 292.07258 654.43329 288.9409 656.04688 287.47656 C 660.31104 283.60683 669.19787 280.87803 673.06641 274.60547 C 673.76032 273.4803 672.70147 271.0104 674.07617 270.76953 C 676.15278 270.40567 679.88805 271.32328 681.125 269.43555 C 681.62218 268.67668 685.66556 271.1449 697.0957 270.74219 C 698.56344 270.69049 699.1048 267.64788 698.3457 266.39062 C 696.58854 263.48058 691.95166 263.90113 688.54102 263.6582 C 685.79597 263.46269 679.97852 264.19336 679.97852 264.19336 C 679.07182 264.22816 678.13612 263.41867 678.64453 262.96094 C 680.358 261.4183 684.76506 261.65331 687.61133 261.35938 C 690.60522 261.04993 693.85038 253.07759 685.89844 250.25781 C 685.55125 250.1347 685.16488 250.08082 684.80078 250.06641 C 684.70976 250.0628 684.62063 250.06169 684.5332 250.0625 z M 652.90234 266.80273 C 653.97578 266.80352 655.00029 267.57408 655.5625 268.5 C 656.5794 270.17478 656.08745 273.96838 655.5625 274.375 C 650.42597 278.35386 642.11822 283.75463 639.25 284.375 C 634.11739 285.48517 624.9492 285.76 623.4375 285.75 C 622.16984 285.74201 619.23828 286.2599 623.52734 283.09961 C 624.44558 282.42305 628.89456 274.1354 634.46875 271.25 C 637.73942 269.55704 651.04036 266.9724 652.6875 266.8125 C 652.75938 266.80552 652.83078 266.80268 652.90234 266.80273 z M 657.16016 275.95703 C 657.99133 275.94038 657.88835 277.12662 659.24219 277.89648 C 659.59987 278.09991 666.21004 276.35725 662.95703 279.70508 C 659.91152 282.83919 653.51027 285.89827 653.32227 288.32227 C 652.99833 292.499 651.62673 288.99528 648.70508 286.50195 C 646.83565 284.90658 642.01885 285.48747 643.11328 284.61133 C 648.2009 280.5385 650.93081 279.33716 655.92969 276.43359 C 656.50287 276.10066 656.8831 275.96258 657.16016 275.95703 z M 578.14062 279.99219 C 588.4324 280.00306 592.57726 282.65837 593.125 283.0625 C 594.56877 284.12774 594.96754 285.47827 594.4375 286.375 C 593.70104 287.62096 590.24345 287.6097 588.375 287 C 587.16767 286.60603 587.79464 285.49783 585.5625 284.875 C 584.68969 284.63146 578.77516 284.98783 575.625 282.25 C 574.9921 281.69994 576.28657 280.0129 577.125 280 C 577.46988 279.99468 577.8088 279.99184 578.14062 279.99219 z M 641.55078 287.60352 C 641.6329 287.60262 641.71545 287.60292 641.79883 287.60352 C 644.13333 287.62014 646.94839 288.2377 647.8418 288.63281 C 653.5515 291.15805 641.50896 308.73433 639.44531 309.09375 C 637.81608 309.37751 627.63024 299.59444 628.13086 298.31055 C 628.98519 296.11955 636.80236 289.67477 638.87109 288.18945 C 639.31665 287.86958 640.01588 287.70035 640.83398 287.63477 C 641.06412 287.61632 641.30444 287.6062 641.55078 287.60352 z M 631.6875 287.66016 C 631.8893 287.65938 632.08458 287.66187 632.27148 287.66797 C 634.26513 287.73307 635.36502 288.19903 634.5625 289.25 C 633.39873 290.77407 627.09321 296.33017 626.125 296.3125 C 624.96132 296.2913 624.43365 294.66439 623.4375 294.0625 C 621.37262 292.81486 617.375 292.875 617.375 292.875 C 612.42002 290.94166 625.43199 287.6843 631.6875 287.66016 z M 590.94336 288.16797 C 590.99935 288.16692 591.05447 288.16708 591.10938 288.16797 C 592.75634 288.19467 593.89304 289.01872 593.79297 291.24023 C 593.76202 291.92735 594.93388 291.19119 595.78125 292.38867 C 596.3862 293.24357 596.69569 294.29045 595.80469 294.31055 C 594.68568 294.33579 583.80466 296.64323 567.80664 294.77539 C 566.36675 294.60728 566.6022 293.0736 565.24414 292.56641 C 563.92276 292.07292 553.68511 292.94983 554.46094 289.95703 C 554.98069 287.95206 583.97176 290.60432 584.59961 290.26758 C 586.59427 289.19777 588.94732 288.25576 590.77344 288.17383 C 590.8305 288.17127 590.88737 288.16902 590.94336 288.16797 z M 652.38086 293.87305 C 652.90846 293.85443 653.46135 294.44416 654.1875 295.6875 C 658.97191 303.87937 683.47356 336.93527 702.79297 363.96875 C 705.79176 368.16492 702.76286 370.74661 699.25 367 C 697.90966 365.57047 687.25855 351.28092 679.875 342 C 674.31735 335.01417 674.01483 323.05827 659.5625 331.1875 C 656.41159 332.95985 652.85099 330.12765 648.72852 327.05664 C 647.80442 326.36826 648.98146 323.93328 648.07617 321.98828 C 646.48267 318.56469 642.45603 312.55621 642.5625 311.875 C 643.47342 306.04681 648.10942 301.36344 649.02539 299.32617 C 650.57905 295.87074 651.4249 293.97641 652.33008 293.87695 C 652.34705 293.87509 652.36384 293.87365 652.38086 293.87305 z M 477.22461 337.14453 C 477.24681 337.14524 477.26821 337.14788 477.28906 337.15039 C 477.87298 337.22075 478.01153 338.06856 477.4375 339.4375 C 476.68031 341.24326 474.73891 346.87951 472.6875 346.6875 C 471.59619 346.58536 470.45613 343.94388 471.19531 343.13477 C 473.75928 340.32751 474.71839 338.82227 476.04297 337.7168 C 476.41493 337.40637 476.74296 337.22786 477.01172 337.16797 C 477.06211 337.15674 477.10994 337.14933 477.15625 337.14648 C 477.1794 337.14506 477.20241 337.14383 477.22461 337.14453 z M 605.79297 340.62695 C 605.82487 340.62569 605.85603 340.62639 605.88672 340.62891 C 605.94809 340.63394 606.00706 340.64626 606.0625 340.66797 C 606.59478 340.87635 606.84046 341.89913 606.42773 344.4043 C 599.63068 385.6621 590.02523 447.31885 578.64844 500.21875 C 577.97658 503.34277 577.63202 507.12396 576.25 509.5 C 574.33856 512.78626 572.40332 517.86354 568 517.375 C 560.28535 516.51905 556.50063 497.23463 553.89648 492.67969 C 547.44922 481.40189 544.05886 471.02712 539.875 457.13672 C 538.769 453.46466 538.3621 450.76537 540.82422 446.61719 C 559.74885 414.73082 593.47867 356.2812 602.72656 343.30469 C 603.39438 342.3676 604.76794 340.78487 605.69531 340.63672 C 605.72843 340.63142 605.76107 340.62821 605.79297 340.62695 z M 648.10352 341.50781 C 648.23937 341.50665 648.38141 341.51095 648.53125 341.52148 C 649.73001 341.60575 651.39796 342.06732 653.89648 342.94727 C 660.11514 345.13717 668.06114 349.99736 670.51367 352.66992 C 675.49569 358.0989 682.7189 367.16806 690.38867 377.11914 C 684.45857 379.15163 679.25161 382.6946 675.41016 387.10742 C 663.04257 372.31111 651.54744 358.44026 647.17969 352.4043 C 646.0695 350.87007 644.28637 344.05475 645.98047 342.35547 C 646.52621 341.80805 647.15251 341.51593 648.10352 341.50781 z M 447.66406 351.82812 C 447.70768 351.82678 447.75151 351.82727 447.79492 351.83008 C 448.99096 351.90737 449.53857 352.90047 450.89062 353.36328 C 452.29408 353.84361 453.35215 354.29616 453.31055 355.16992 C 453.25164 356.4063 451.20262 356.78325 449.96484 356.78125 C 447.65663 356.77802 443.72938 355.50979 443.73438 353.75781 C 443.73612 353.07442 444.70374 352.97118 445.53516 352.65039 C 446.329 352.34411 447.00973 351.85149 447.66406 351.82812 z M 628.33398 352.75391 C 628.55205 352.74253 628.79179 352.85106 629.05273 353.11133 C 631.16889 355.22162 632.2147 357.9696 634.60742 359.50781 C 635.11237 359.83243 635.65438 359.28259 635.93555 359.62695 C 645.89496 371.82448 663.10225 393.12057 669.18945 400.65039 C 669.56219 403.37032 671.5275 406.65991 673.67383 409.37891 A 3.75 3.5625 0 0 0 670.25 412.8125 A 3.75 3.5625 0 0 0 671.18164 415.16016 A 4.1875 3.9781251 0 0 0 667.5 419.10352 A 4.1875 3.9781251 0 0 0 668.93555 422.09961 A 4.1875 3.9781251 0 0 0 665.625 425.97852 A 4.1875 3.9781251 0 0 0 666.79883 428.72656 A 4.1875 3.9781251 0 0 0 663.5 432.60352 A 4.1875 3.9781251 0 0 0 664.71484 435.39062 A 4.1875 3.9781251 0 0 0 662 439.10352 A 4.1875 3.9781251 0 0 0 662.99219 441.66992 A 4.1875 3.9781251 0 0 0 661.125 444.97852 A 4.1875 3.9781251 0 0 0 662.30078 447.67383 C 662.28265 447.77828 662.26792 447.88378 662.25 447.98828 A 4.1875 3.9781251 0 0 0 659.625 451.60352 A 4.1875 3.9781251 0 0 0 661.26953 454.58789 C 661.23159 454.88402 661.2023 455.18202 661.16602 455.47852 A 4.1875 3.9781251 0 0 0 658.5 458.97852 A 4.1875 3.9781251 0 0 0 660.49023 462.18555 C 660.465 462.5018 660.44135 462.81819 660.41797 463.13477 A 4.1875 3.9781251 0 0 0 658.375 466.35352 A 4.1875 3.9781251 0 0 0 660.07812 469.37891 C 660.06626 469.71752 660.05085 470.05565 660.04102 470.39453 A 4.1875 3.9781251 0 0 0 658.25 473.47852 A 4.1875 3.9781251 0 0 0 659.97852 476.59375 C 659.98021 476.7885 659.97809 476.98292 659.98047 477.17773 A 4.1875 3.9781251 0 0 0 658.5 480.10352 A 4.1875 3.9781251 0 0 0 660.16797 483.20508 C 660.17407 483.33079 660.1772 483.45631 660.18359 483.58203 A 4.1875 3.9781251 0 0 0 658.625 486.60352 A 4.1875 3.9781251 0 0 0 660.62305 489.86523 C 660.64412 490.10294 660.65759 490.34048 660.67969 490.57812 A 4.1875 3.9781251 0 0 0 659.5 493.22852 A 4.1875 3.9781251 0 0 0 661.01953 496.28711 A 4.1875 3.9781251 0 0 0 660.125 498.72852 A 4.1875 3.9781251 0 0 0 662.1543 502.12891 A 4.1875 3.9781251 0 0 0 660.875 504.97852 A 4.1875 3.9781251 0 0 0 663.32617 508.44922 C 663.37804 508.70569 663.42544 508.9624 663.47852 509.21875 A 4.1875 3.9781251 0 0 0 662.75 511.35352 A 4.1875 3.9781251 0 0 0 664.67578 514.54492 C 664.74677 514.83974 664.81412 515.1351 664.88672 515.42969 A 4.1875 3.9781251 0 0 0 664.125 517.60352 A 4.1875 3.9781251 0 0 0 666.36133 520.99023 C 666.4187 521.19324 666.4731 521.39674 666.53125 521.59961 A 4.1875 3.9781251 0 0 0 665.625 523.97852 A 4.1875 3.9781251 0 0 0 668.37305 527.5957 C 668.42689 527.76037 668.47884 527.92529 668.5332 528.08984 A 4.1875 3.9781251 0 0 0 667.625 530.47852 A 4.1875 3.9781251 0 0 0 670.69727 534.24023 C 670.73513 534.34161 670.77053 534.4436 670.80859 534.54492 A 4.1875 3.9781251 0 0 0 670.125 536.60352 A 4.1875 3.9781251 0 0 0 672.63867 540.24609 A 4.1875 3.9781251 0 0 0 672 542.35352 A 4.1875 3.9781251 0 0 0 675.72461 546.25977 C 675.76352 546.3436 675.80079 546.42793 675.83984 546.51172 A 4.1875 3.9781251 0 0 0 675.5 547.97852 A 4.1875 3.9781251 0 0 0 678.30078 551.55859 C 678.45109 551.8549 678.59979 552.15164 678.75195 552.44727 A 5.7281251 3.6875 76.302747 0 0 678.85547 555.60156 A 5.7281251 3.6875 76.302747 0 0 682.96484 560.20898 C 683.12365 560.48411 683.28348 560.75748 683.44336 561.03125 A 5.7281251 3.6875 65.864723 0 0 684.07227 564.73633 A 5.7281251 3.6875 65.864723 0 0 688.0957 568.58398 A 5.7281251 3.6875 65.864723 0 0 688.82227 571.86133 A 5.7281251 3.6875 65.864723 0 0 692.97266 575.6543 C 693.1125 575.84807 693.25026 576.04536 693.39062 576.23828 A 5.7281251 3.6875 65.864723 0 0 694.07227 579.48633 A 5.7281251 3.6875 65.864723 0 0 698.86328 583.41406 A 5.7281251 3.6875 58.396277 0 0 700.04688 587.66016 A 5.7281251 3.6875 58.396277 0 0 705.37305 590.91016 C 705.37928 590.91696 705.38446 590.92483 705.39062 590.93164 A 5.7281251 3.6875 58.396277 0 0 706.54688 594.16016 A 5.7281251 3.6875 58.396277 0 0 710.88086 597.43555 A 5.7281251 3.6875 48.414641 0 0 712.67969 600.80078 A 5.7281251 3.6875 48.414641 0 0 717.77148 603.25781 A 5.7281251 3.6875 48.414641 0 0 719.55469 606.55078 A 5.7281251 3.6875 48.414641 0 0 724.27734 609.0332 A 5.7281251 3.6875 48.414641 0 0 726.05469 612.30078 A 5.7281251 3.6875 48.414641 0 0 731.59375 614.66797 A 5.7281251 3.6875 33.999049 0 0 734 617.16016 A 5.7281251 3.6875 33.999049 0 0 738.56836 618.50586 A 5.7281251 3.6875 33.999049 0 0 741.5 622.16016 A 5.7281251 3.6875 33.999049 0 0 746.69141 623.39062 A 5.7281251 3.6875 33.999049 0 0 749.25 626.16016 A 5.7281251 3.6875 33.999049 0 0 753.88672 627.49414 A 5.7281251 3.6875 18.234392 0 0 757.5332 629.98047 A 5.7281251 3.6875 18.234392 0 0 761.6875 630.22852 A 5.7281251 3.6875 18.234392 0 0 765.1582 632.48047 A 5.7281251 3.6875 18.234392 0 0 769.00781 632.78906 A 5.7281251 3.6875 18.234392 0 0 772.375 635.00195 L 512.84766 678.94922 C 516.09537 676.84623 519.16657 674.45523 522.01172 671.73633 A 3.6320545 5.5486194 2.3638185 0 0 522.05273 671.75586 A 3.6320545 5.5486194 2.3638185 0 0 525.79883 667.80078 C 526.15003 667.40767 526.48009 666.9884 526.82422 666.58594 A 3.6320545 5.5486194 2.3638185 0 0 529.50781 663.28125 C 529.60311 663.15622 529.69437 663.02419 529.78906 662.89844 A 3.6320545 5.5486194 2.3638185 0 0 532.95117 658.38867 C 533.09916 658.16222 533.24445 657.93349 533.39062 657.70508 A 3.6320545 5.5486194 2.3638185 0 0 536.86719 652.46875 A 3.6320545 5.5486194 2.3638185 0 0 536.87305 651.99414 A 3.6320545 5.5486194 2.3638185 0 0 539.79688 646.85938 A 3.6320545 5.5486194 2.3638185 0 0 539.77539 646.03516 C 539.87209 645.82491 539.96498 645.61169 540.06055 645.40039 A 3.6320545 5.5486194 2.3638185 0 0 542.7793 640.36719 A 3.6320545 5.5486194 2.3638185 0 0 542.70898 638.95703 C 542.75378 638.83926 542.79736 638.71958 542.8418 638.60156 A 3.6320545 5.5486194 2.3638185 0 0 545.49219 633.5957 A 3.6320545 5.5486194 2.3638185 0 0 545.25391 631.53711 C 545.34581 631.23882 545.44715 630.94614 545.53711 630.64648 A 3.6320545 5.5486194 2.3638185 0 0 547.87109 625.81641 A 3.6320545 5.5486194 2.3638185 0 0 547.52539 623.27539 C 547.57429 623.07083 547.61592 622.86129 547.66406 622.65625 A 3.6320545 5.5486194 2.3638185 0 0 549.86719 617.91211 A 3.6320545 5.5486194 2.3638185 0 0 549.31445 614.55859 C 549.32905 614.47629 549.34488 614.39483 549.35938 614.3125 A 4.2553929 7.6703166 0.35778361 0 0 551.57031 608.08008 A 4.2553929 7.6703166 0.35778361 0 0 550.84766 603.50195 C 550.88746 603.11522 550.92595 602.7274 550.96289 602.33984 A 4.2553929 7.6703166 0.35778361 0 0 552.90039 596.54297 A 4.2553929 7.6703166 0.35778361 0 0 551.65234 590.83984 C 551.66234 590.44911 551.67659 590.05905 551.68359 589.66797 A 7.6925456 4.2430962 87.082447 0 0 552.06641 588.66602 C 558.43131 583.12764 562.94071 578.63609 564.51367 575.8457 C 565.22166 574.58976 564.53995 568.02137 568.59961 566.73633 C 581.18266 562.75319 593.34578 548.40537 596.49219 530.33984 L 626.99805 355.19141 C 627.22348 353.897 627.67982 352.78803 628.33398 352.75391 z M 778.16016 370.74219 C 781.87998 370.77812 785.55916 371.09676 789.12109 371.6543 L 775.80859 448.79492 L 766.95508 371.52539 C 770.67934 370.95303 774.44025 370.70625 778.16016 370.74219 z M 765.97266 371.70703 L 775.11328 451.49023 C 773.86798 452.12039 772.70205 452.83447 771.61719 453.62695 L 764.16016 443.00977 L 744.43164 378.1543 C 751.81497 374.86397 758.99464 372.81059 765.97266 371.70703 z M 790.10742 371.81836 C 798.04012 373.1864 805.57711 375.854 812.7168 379.41016 L 800.7793 451.19531 C 792.73328 448.13752 783.97723 447.62911 776.4668 450.86133 L 790.10742 371.81836 z M 743.51172 378.56836 L 762.31641 440.38086 L 726.01367 388.67773 C 732.13546 384.59698 737.66978 381.16539 743.51172 378.56836 z M 813.65234 379.89648 C 821.01629 383.66866 827.91245 388.45312 834.32031 393.86523 L 803.4375 452.38867 C 802.87361 452.11211 802.30254 451.85174 801.72852 451.60156 L 813.65234 379.89648 z M 725.22461 389.29688 L 763.25 443.45508 L 764.89844 448.87305 C 749.99105 431.12822 740.53783 417.50895 726.82227 398.78906 C 724.93013 396.20664 723.3843 394.01506 721.9043 391.89844 C 722.99003 391.01893 724.07777 390.14136 725.22461 389.29688 z M 835.0957 394.5332 C 841.5812 400.09951 847.53548 406.32496 852.91797 412.84375 L 809.21094 455.78711 C 807.64521 454.70182 806.01113 453.71734 804.32617 452.8418 L 835.0957 394.5332 z M 710.03906 403.41016 C 715.46987 410.85909 720.72101 418.15841 725.17773 424.59375 C 725.46169 425.00376 725.46446 426.50355 725.4082 428.28516 L 709.64453 403.84961 C 709.77106 403.70062 709.91142 403.55859 710.03906 403.41016 z M 708.96875 404.64844 L 725.34766 430.03516 C 725.19496 433.23804 724.96573 437.03626 725.30469 439.49805 C 726.77903 450.20591 724.62198 446.85655 721.60156 442.82617 C 718.43249 438.59741 709.9763 428.43211 700.39844 416.99219 C 702.8888 412.71574 705.71067 408.57711 708.96875 404.64844 z M 853.54102 413.63281 C 859.24316 420.6242 864.22688 427.92597 868.53516 435.12305 L 816.77734 462.32031 C 814.75138 460.15392 812.48128 458.15111 810.03711 456.37695 L 853.54102 413.63281 z M 727.74219 428.18555 C 728.08158 428.18448 728.51911 428.55903 729.06836 429.38867 C 731.03545 432.35999 745.97394 450.20227 760.80273 469.87305 C 760.85948 469.94832 760.8723 470.09679 760.91211 470.20312 C 760.57698 471.42668 760.25858 472.6587 760.03125 473.92578 L 750.05859 466.49414 L 726.83594 430.49805 C 726.95821 429.23398 727.18487 428.35218 727.60352 428.20898 C 727.64807 428.19374 727.6937 428.1857 727.74219 428.18555 z M 726.79688 432.2832 L 747.76758 464.78711 L 728.57812 450.48828 C 728.21528 449.35149 727.89691 448.1374 727.76953 446.96484 C 727.17282 441.47219 726.7221 435.95368 726.79688 432.2832 z M 693.02344 432.98242 C 698.18004 440.21678 701.88902 445.4437 708.99023 455.25781 L 689.33594 446.05664 C 690.28711 441.6345 691.51761 437.26734 693.02344 432.98242 z M 869.06055 435.97852 C 873.7861 443.81239 877.89774 452.45406 880.62695 460.40625 L 826.74805 481.90234 C 825.57935 474.82628 821.53759 467.70847 817.4707 463.08789 L 869.06055 435.97852 z M 765.0957 446.08398 L 770.82227 454.24023 C 770.58024 454.43241 770.37621 454.65941 770.14258 454.85938 C 768.98603 453.51981 767.5932 451.9915 766.5 450.70117 L 765.0957 446.08398 z M 689.09961 447.05078 L 710.18164 456.91992 C 714.6409 463.07317 718.21863 467.87932 722.69336 473.94922 L 686.6582 470.47852 C 686.7525 462.64829 687.51121 454.77595 689.09961 447.05078 z M 729.26562 452.24805 L 749.31641 467.1875 C 751.42247 470.49448 753.66796 473.85927 755.70703 477.12891 L 742.99609 471.17773 C 738.8681 465.91113 734.03188 459.81501 730.23633 454.32422 C 729.96904 453.93755 729.60777 453.05231 729.26562 452.24805 z M 784.57812 455.58789 C 787.58299 455.94326 785.5134 460.48392 784.45703 465.10547 C 783.93487 467.85813 782.62879 468.80222 780.76758 465.4707 C 779.54407 463.28075 776.95296 457.76113 779.65625 456.7793 C 782.01097 455.8155 783.57658 455.46944 784.57812 455.58789 z M 794.80273 456.15234 C 797.40175 456.0711 799.63285 457.95595 798.98047 459.73242 C 797.81737 462.89963 795.47371 464.88057 792.45508 466.80273 C 791.12904 467.64714 787.79625 468.94451 788.41406 464.37109 C 789.23677 458.28101 792.2038 456.23359 794.80273 456.15234 z M 880.92969 461.36328 C 883.66507 469.62986 885.54027 478.26546 886.54688 487.03906 L 830.80078 495.24023 L 827.41016 494.12891 C 827.62321 490.19232 827.42166 486.36911 826.91016 482.91406 L 880.92969 461.36328 z M 806.77344 461.625 C 808.35465 461.51297 809.83861 463.54503 811.09375 465.30664 L 801.17773 470.51758 C 799.81969 470.15036 799.67847 469.23302 801.20312 467.17578 C 803.40634 464.29905 804.81147 461.76402 806.77344 461.625 z M 811.68555 466.12891 C 813.4562 469.43115 814.32518 470.38373 811.53906 470.4668 C 807.96146 470.57347 804.97752 470.78142 802.95117 470.71875 L 811.68555 466.12891 z M 447.73047 469.78125 C 449.02924 469.83221 450.31927 469.93743 451.5918 470.09375 L 447.3125 534.44922 L 435.97461 470.91016 C 438.55932 470.28152 441.19071 469.92217 443.8125 469.79688 C 445.12338 469.73416 446.43169 469.73029 447.73047 469.78125 z M 452.29688 470.1875 C 457.97311 470.98827 463.45643 472.88184 468.71875 475.52539 L 465.8125 523.02148 C 464.46329 524.52592 463.16099 525.90642 461.33594 527.72852 C 460.07402 528.9881 454.59818 525.03619 451.73047 532.0918 C 451.32526 533.08869 451.60316 533.80091 452.03906 534.41992 C 450.60586 534.80089 449.22073 535.36073 447.91211 536.13086 L 452.29688 470.1875 z M 435.29492 471.10156 L 447.00195 536.70703 C 446.1667 537.28012 445.39321 537.92043 444.68164 538.62109 L 438.72852 530.15039 L 420.55273 477.33203 C 425.5345 474.30291 430.45425 472.30518 435.29492 471.10156 z M 686.66016 471.48438 L 723.49219 475.03125 C 729.98111 483.82152 736.30105 492.33955 741.40625 498.875 L 688.53906 495.14258 C 687.30471 487.4458 686.6232 479.49442 686.66016 471.48438 z M 744.30664 472.89648 L 752.73438 476.8418 L 746.88867 476.2793 C 746.21279 475.35292 745.22185 474.0784 744.30664 472.89648 z M 812.31836 473.57812 C 818.19085 473.49361 818.49242 477.60099 820 481.1875 C 820.90238 483.33424 820.68939 485.7547 817.5625 484 C 813.32232 481.62056 808.90013 479.82269 803.39648 476.51172 C 802.57241 476.01584 800.98451 474.70902 804.77734 474.04102 C 807.94412 473.48313 810.36079 473.60635 812.31836 473.57812 z M 469.41016 475.88672 C 474.84468 478.69961 480.01701 482.37093 484.88672 486.58008 L 477.14844 508.08203 C 473.12393 513.69446 468.73929 519.7254 466.57422 522.21875 L 469.41016 475.88672 z M 747.7168 477.36328 L 755.4375 478.10742 C 755.44541 478.11498 755.45109 478.12523 755.45898 478.13281 C 754.16933 482.40983 752.85569 484.31959 748.61914 478.54688 C 748.45542 478.29828 747.92009 477.65276 747.7168 477.36328 z M 419.93164 477.71289 L 437.25586 528.05273 L 408.2793 486.80469 C 412.32043 483.17435 415.98949 480.10436 419.93164 477.71289 z M 531.0293 479.23438 C 531.06297 479.23386 531.09708 479.23428 531.13086 479.23633 C 531.77944 479.27558 532.44465 479.79756 533.05859 481.16797 C 536.67903 489.24907 546.00016 505.29772 549.75391 520.77539 C 550.4104 523.48237 550.01803 525.70813 548.62695 528.12109 C 547.5253 530.03238 545.59438 532.25011 543.62695 534.20117 A 7.5476936 4.3245276 64.832321 0 0 542.88281 533.22461 C 542.7358 532.81018 542.57845 532.40435 542.42773 531.99219 A 7.5476936 4.3245276 64.832321 0 0 541.11523 525.19141 A 7.5476936 4.3245276 64.832321 0 0 538.25586 521.86133 C 538.04901 521.41653 537.82095 520.98789 537.60938 520.54688 A 7.5476936 4.3245276 64.832321 0 0 536.20117 515.34766 A 7.5476936 4.3245276 64.832321 0 0 532.5918 511.47852 C 532.5195 511.3579 532.44755 511.23566 532.375 511.11523 A 7.5476936 4.3245276 64.832321 0 0 530.90234 505.37695 A 7.5476936 4.3245276 64.832321 0 0 525.8125 500.93164 C 525.793 500.90364 525.77556 500.87576 525.75586 500.84766 A 7.5476936 4.3245276 64.832321 0 0 524.26953 495.92773 A 7.5476936 4.3245276 64.832321 0 0 520.8457 492.24805 C 523.36037 488.59352 525.85804 484.8026 528.35352 481.35938 C 528.99575 480.47288 529.98531 479.25023 531.0293 479.23438 z M 808.00781 483.55469 C 808.36238 483.56369 808.90483 483.69177 809.67578 483.94922 C 812.15479 484.77704 814.1001 485.55639 815.66602 486.32422 C 813.80695 486.97764 811.85576 487.68551 810.06055 488.44727 C 809.59046 487.71614 809.27293 487.23877 808.74414 486.41406 C 807.56648 484.57737 806.94411 483.52914 808.00781 483.55469 z M 816.82617 486.9375 C 819.68731 488.55092 820.87465 490.16586 821.28125 492.12109 L 811.69922 488.98242 L 816.82617 486.9375 z M 485.47656 487.09961 C 486.82682 488.28537 488.14753 489.5207 489.44727 490.78516 C 485.64028 496.1642 481.09829 502.5423 478.72266 505.86914 L 485.47656 487.09961 z M 407.76367 487.34961 L 438.11719 530.55664 L 441.43555 540.19531 C 436.14453 541.60254 432.44419 545.11916 429.93164 549.51953 L 397.75391 500.03516 C 400.54239 495.51401 403.83829 491.24654 407.76367 487.34961 z M 886.66211 488.0332 C 887.57246 496.52606 887.64739 505.13293 886.96094 513.63867 L 832.92969 495.9375 L 886.66211 488.0332 z M 1268.9023 489.13867 L 1069.8145 524.03711 C 1098.3939 539.09852 1118.9014 544.66519 1136.25 555.00391 C 1144.3117 559.80812 1148.5166 565.75767 1150.5312 574.04492 C 1158.6369 607.38257 1151.7376 631.09209 1153.9121 768.32031 L 1315.2422 768.89258 C 1273.639 710.99292 1249.6437 690.5894 1220.084 649.84961 C 1216.4249 644.8065 1215.387 637.29981 1217.4492 631.46875 C 1233.8199 585.18066 1248.9357 549.43095 1268.9023 489.13867 z M 810.92383 489.78125 L 821.4375 493.22461 C 821.5155 494.2374 821.45433 495.38354 821.36133 496.62891 L 815.94922 497.42578 C 814.38369 495.1287 812.72438 492.57175 810.92383 489.78125 z M 809.62109 493.34766 C 809.82976 493.37706 810.09507 493.51646 810.42969 493.79102 C 811.21209 494.96515 812.15037 496.35885 813.06445 497.84961 L 809.17578 498.42188 C 809.13448 497.97547 809.10848 497.72683 809.0625 497.2207 C 808.87575 495.16742 808.71687 493.22033 809.62109 493.34766 z M 688.70117 496.15625 L 742.22266 499.93555 C 744.47218 502.80086 746.29465 505.00449 748.01172 507.04297 L 694.72266 519.83203 C 692.19288 512.40843 690.09229 504.47057 688.70117 496.15625 z M 830.71484 496.26367 L 886.90234 514.66992 C 886.16854 522.98031 884.63093 531.16484 882.39453 539.05664 L 823.4375 511.18945 C 825.52173 506.70543 826.71442 501.71798 827.21875 496.77734 L 830.71484 496.26367 z M 821.29297 497.65039 C 821.22337 498.54606 821.15137 499.49999 821.11133 500.54297 C 821.06643 501.71288 820.34944 503.7463 817.99805 500.39062 C 817.49375 499.67112 817.04617 499.01382 816.58398 498.3418 L 821.29297 497.65039 z M 496.32617 498.06445 C 497.31323 499.19568 498.28745 500.33835 499.23633 501.5 L 482.96094 523.25 C 481.13774 524.29024 479.45572 525.85599 477.95508 528.0625 C 477.85828 526.25102 477.87851 524.44341 478.09766 522.99609 C 478.59679 519.69986 487.83607 508.21013 496.32617 498.06445 z M 813.62305 498.77734 C 815.35214 501.73678 816.82877 505.03768 816.78906 508.04883 L 809.83008 504.75977 C 809.66423 503.45074 809.48852 501.71759 809.27148 499.41797 L 813.62305 498.77734 z M 397.33008 500.72266 L 428.62305 548.8457 L 389.42773 518.95117 C 391.27705 512.56179 393.89386 506.43946 397.33008 500.72266 z M 499.72656 502.12695 C 500.55278 503.15019 501.34547 504.19186 502.13867 505.23242 C 498.79563 511.37788 495.54992 517.18152 492.59766 522.02734 C 489.7022 521.41904 486.96686 521.52668 484.46484 522.52148 L 499.72656 502.12695 z M 805.23633 503.97461 C 805.95563 503.77961 806.98008 505.16813 807.0625 506.64648 C 807.24368 509.89638 807.42183 512.62918 805.31055 508.36914 C 804.25372 506.00685 802.41019 504.74077 805.23633 503.97461 z M 779.91016 503.98438 C 780.97865 503.86795 782.45772 504.28037 782.73438 504.82617 C 785.21445 509.71914 783.41196 510.97991 782.56641 509.91406 C 780.88396 507.79325 780.75953 507.68976 779.55273 506.31055 C 778.18372 504.74584 778.84166 504.10072 779.91016 503.98438 z M 787.68945 504.20117 C 787.95478 504.20164 788.18669 504.23592 788.38672 504.29688 C 791.18714 505.15019 787.90004 511.44685 786.81055 509.12305 C 786.81055 509.12305 786.46609 508.79297 785.94141 506.71289 C 785.65796 505.58918 784.96826 504.68717 786.78906 504.30469 C 787.12538 504.23404 787.42412 504.2007 787.68945 504.20117 z M 809.99414 505.94141 L 816.70898 509.11523 C 816.48412 510.66122 815.80987 512.10727 814.45117 513.34766 C 812.42911 515.19354 811.49258 515.70286 810.79492 511.21484 C 810.41917 508.79774 810.19351 507.36356 809.99414 505.94141 z M 797.61719 506.66602 C 798.92052 506.54057 799.06653 508.07089 798.75781 509.04688 C 796.28215 516.87335 794.36635 523.23036 790.91602 517.72461 C 789.5294 515.51199 788.67452 512.53592 789.93945 511.62695 C 794.74808 508.17156 790.4032 511.1937 795.90234 507.42578 C 796.6198 506.9342 797.18274 506.70783 797.61719 506.66602 z M 748.71875 507.90234 C 749.12248 508.37483 749.72509 509.15388 750.08984 509.56641 C 753.58619 513.52041 751.87868 508.45221 759.36719 513.50586 L 716.98828 560.95117 C 712.58802 555.23381 708.55006 549.21065 705.02734 542.91602 L 748.63086 507.92383 L 748.71875 507.90234 z M 776.99219 507.96289 C 777.14006 507.97786 777.30718 508.07424 777.49219 508.26953 L 784.55469 515.72461 C 787.28806 518.61001 780.7037 517.64389 777.09961 513.23633 C 775.8604 511.72083 775.9571 507.85813 776.99219 507.96289 z M 746.35156 508.4707 L 704.51367 542.04492 C 700.59324 535.06016 697.4843 527.77013 695.04102 520.78516 L 746.35156 508.4707 z M 803.61328 510.83203 C 804.01489 510.9327 804.38734 511.27637 804.70312 511.93359 C 806.39046 515.4444 807.53849 519.03703 805.01758 519.56055 C 802.85686 520.00927 803.48376 519.80074 800.45508 520.47656 C 796.57108 521.34325 800.80205 510.12733 803.61328 510.83203 z M 823 512.08984 L 882.11719 540.0293 C 879.88978 547.65453 876.94039 554.96348 873.32812 561.80273 L 817.59766 519.75 C 819.8096 517.51774 821.5881 514.91407 823 512.08984 z M 507.32812 512.47656 C 508.85397 514.73886 510.32813 517.01014 511.70508 519.27539 L 502.13672 526.08203 C 501.26176 525.56251 500.38495 525.0379 499.52344 524.59961 C 501.91787 520.78758 504.69131 516.56528 507.32812 512.47656 z M 768.88086 513.95312 L 769.36523 519.66211 L 735.77344 581.00195 C 729.21216 575.22779 723.10357 568.76477 717.62305 561.74414 L 760.17578 514.10352 C 761.03312 514.70861 761.88566 515.30718 762.97852 516.17773 C 764.48479 517.37781 766.57098 516.15104 768.88086 513.95312 z M 772.49219 516.03516 C 775.78014 518.78951 779.69844 521.15247 783.85547 522.95508 L 772.90234 549.54492 L 770.38672 519.88086 L 772.49219 516.03516 z M 389.20703 519.75195 L 429.43555 550.43164 C 428.6524 551.93781 427.98088 553.51498 427.44727 555.15625 L 386.24219 535.78906 C 386.79826 530.34599 387.7519 524.96704 389.20703 519.75195 z M 512.13086 519.96094 C 515.97593 526.24312 519.44158 533.22033 521.88867 539.68359 L 520.18555 540.61719 C 514.4932 535.1271 508.59588 530.02993 502.91016 526.52148 L 512.13086 519.96094 z M 816.86523 520.44727 L 872.84961 562.69141 C 869.21491 569.41855 864.90802 575.6623 859.93945 581.24219 L 821.0332 546.53516 L 811.42383 524.31836 C 813.45809 523.2447 815.2668 521.93979 816.86523 520.44727 z M 769.51758 521.4668 L 772.07031 551.56641 L 754.37109 594.5332 C 748.1543 590.83826 742.17697 586.53404 736.55469 581.66211 L 769.51758 521.4668 z M 784.77344 523.34961 C 785.55947 523.67209 786.35448 523.96728 787.15234 524.24805 L 798.84961 608.16602 C 791.65469 607.963 784.53283 606.8284 777.58398 604.7832 L 773.08594 551.72266 L 784.77344 523.34961 z M 489.82617 524.07812 C 490.30548 524.07977 490.79135 524.11106 491.2832 524.16602 C 487.21982 530.62164 483.7949 535.0217 481.66211 535.36523 C 480.12714 535.61251 479.15634 534.24268 478.56836 532.27539 C 481.44604 526.435 485.35042 524.06288 489.82617 524.07812 z M 788.21484 524.61328 C 789.38637 524.99559 790.56423 525.3264 791.74219 525.61133 L 821.39453 605.45898 C 814.20444 607.42308 806.99881 608.28844 799.86328 608.17969 L 788.21484 524.61328 z M 810.53125 524.77539 L 819.25781 544.95117 L 798.78711 526.68945 C 803.10093 526.94156 807.16302 526.36954 810.53125 524.77539 z M 792.91016 525.88281 C 794.32951 526.18583 795.74229 526.40846 797.13672 526.55469 L 820.20117 547.13086 L 841.63281 596.67773 C 837.80433 599.04532 833.74086 601.1066 829.43555 602.80859 C 827.08275 603.7388 824.72507 604.5229 822.36523 605.20117 L 792.91016 525.88281 z M 498.36914 526.4375 C 498.96928 526.7348 499.58356 527.12156 500.19141 527.4668 L 495.83594 530.56641 C 496.80584 529.00445 497.34458 528.07546 498.36914 526.4375 z M 500.96484 527.9043 C 506.51405 531.21624 512.28095 536.3735 517.76172 541.94727 L 489.28906 557.55859 C 485.88539 556.14961 484.87768 548.51228 486.48633 545.80078 C 488.40722 542.56296 491.68755 537.28148 494.75781 532.32031 L 500.96484 527.9043 z M 439.58984 532.6543 L 444.16211 539.16016 C 443.98332 539.35176 443.83662 539.57381 443.66602 539.77344 C 443.14624 539.8482 442.62024 539.91414 442.12695 540.02539 L 439.58984 532.6543 z M 1052.0781 532.9043 L 1049.5039 574.95312 L 1114.1504 563.79688 L 1114.7227 556.35938 L 1052.0781 532.9043 z M 386.14062 536.62109 L 427.24609 555.94141 C 427.01471 556.71171 426.83092 557.49114 426.64844 558.27344 L 385.96875 556.09961 C 385.5179 549.61958 385.53244 543.07666 386.14062 536.62109 z M 522.16602 540.46289 C 522.54873 541.50365 522.89137 542.56672 523.24609 543.62305 C 522.43254 542.80838 521.63937 542.00532 520.81445 541.20312 L 522.16602 540.46289 z M 518.36719 542.54492 C 520.71833 544.95933 522.98333 547.38757 525.1582 549.82812 C 525.3532 550.53135 525.53964 551.23714 525.72266 551.94531 C 520.40656 555.20797 496.09545 558.42828 490.51172 557.81836 L 518.36719 542.54492 z M 821.97656 548.71484 L 859.24609 581.96289 C 854.2988 587.3946 848.70645 592.16955 842.48633 596.12891 L 821.97656 548.71484 z M 772.25391 553.74414 L 776.55469 604.45898 C 769.22225 602.20667 762.07953 599.02673 755.24219 595.04492 L 772.25391 553.74414 z M 386.03711 556.93164 L 426.43945 559.08984 C 425.61366 562.99175 425.30679 566.9374 425.4668 570.38867 C 425.56734 572.55729 425.46047 574.89167 425.36719 577.2793 L 388.92188 576.41992 C 387.54429 570.10559 386.54016 563.55807 386.03711 556.93164 z M 555.96289 570.94141 C 556.23187 570.93818 556.47572 570.94754 556.69531 570.9668 C 559.76959 571.23632 558.21094 573.57928 557.19922 574.70117 C 555.5603 576.51856 553.74568 578.31922 551.99219 580.12695 A 7.6925456 4.2430962 87.082447 0 0 551.54102 579.02148 C 551.50052 578.10109 551.46619 577.17976 551.41016 576.25977 A 7.6925456 4.2430962 87.082447 0 0 551.99219 572.25391 A 7.6925456 4.2430962 87.082447 0 0 551.82812 571.22656 C 553.42837 571.09269 553.27768 571.14412 555.07812 570.98828 C 555.39979 570.96044 555.69391 570.94463 555.96289 570.94141 z M 529.33984 572.87891 C 529.65284 576.39874 529.82617 579.92856 529.86523 583.44531 L 502.53516 574.8125 C 509.05107 573.90052 515.48021 573.17607 522.21289 573.04688 C 523.01321 573.03151 524.45494 573.11039 529.33984 572.87891 z M 500.69922 575.08008 L 529.89258 584.30078 C 529.91991 590.16189 529.50833 595.96411 528.74609 601.63672 C 527.92665 602.32563 527.09129 602.99538 526.26562 603.67969 L 484.97266 584.06836 C 485.65214 581.86678 486.08569 579.53322 486.35547 577.16406 C 491.30801 576.47175 496.05733 575.75037 500.69922 575.08008 z M 389.10352 577.25195 L 425.35547 578.10742 C 425.25844 580.65211 425.19625 583.28927 425.35547 585.95703 L 394.9082 596.58203 C 392.63656 590.54764 390.63226 584.07058 389.10352 577.25195 z M 479.35938 578.62891 C 479.73025 579.67681 480.01394 580.72689 480.08398 581.74805 L 476.59961 580.09375 C 477.33846 579.53383 478.25772 579.04522 479.35938 578.62891 z M 427.22461 580.00391 C 428.02055 579.99764 428.26522 580.35429 428.92188 582.12695 C 429.32537 583.21636 429.63389 583.89856 429.6543 584.45703 L 427.59766 585.17578 C 427.3959 585.04191 427.11872 584.94572 427.04883 584.77734 C 426.23446 582.81547 426.38655 580.01091 427.22461 580.00391 z M 475.90234 580.64062 L 480.09766 582.63281 C 480.04146 583.92082 479.66192 585.14596 478.78711 586.22852 C 477.48518 587.83947 476.85992 588.29996 476.07227 584.61719 C 475.75218 583.12067 475.57557 582.27229 475.38477 581.35156 C 475.57722 581.12177 475.67242 580.85639 475.90234 580.64062 z M 484.72461 584.83203 L 525.58594 604.23438 C 521.09486 607.94257 516.57672 611.46569 512.00586 615.01172 L 481.42578 591.39258 C 482.83595 589.45411 483.91694 587.22674 484.72461 584.83203 z M 425.42188 586.80859 C 425.50898 587.90646 425.63429 589.00805 425.82422 590.11133 L 403.26953 614.54688 C 400.04749 608.93334 397.37721 603.03271 395.19531 597.35742 L 425.42188 586.80859 z M 473.18359 588.84961 C 473.51066 590.03199 473.56055 591.02034 472.99414 591.50195 C 473.0549 590.65734 473.15087 589.74775 473.18359 588.84961 z M 426.01953 591.05273 C 426.78808 594.82644 428.33979 598.58832 431.18945 602.19922 L 413.30273 629.66211 C 409.82659 625.11682 406.58578 620.30346 403.68945 615.24414 L 426.01953 591.05273 z M 480.95703 592 L 511.37305 615.49414 C 507.09115 618.80812 502.81352 622.11717 498.60547 625.25195 L 485.61523 613.40234 L 477.38086 595.42773 C 478.7424 594.45502 479.93 593.30113 480.95703 592 z M 476.78125 595.84375 L 484.25977 612.16602 L 469.05664 598.29688 C 469.22646 598.16741 469.34856 598.00843 469.51367 597.875 C 472.22628 597.78154 474.7359 597.16031 476.78125 595.84375 z M 468.42969 598.75195 L 485.06836 613.92969 L 492.37695 629.88672 C 488.42002 632.79774 484.6146 635.58022 480.9082 638.2793 L 465.69727 600.5918 C 466.58688 600.03091 467.51551 599.40782 468.42969 598.75195 z M 447.22461 600.11133 C 447.66964 600.11362 448.15664 600.48313 448.62109 600.96094 L 449.2207 604.88672 C 448.25654 604.95371 446.75009 604.21231 446.36133 603.51562 C 445.81653 602.53942 446.04103 600.19258 447.15625 600.11328 C 447.17884 600.11168 447.20167 600.11121 447.22461 600.11133 z M 465.08984 600.99023 L 480.31445 638.71484 C 479.00225 639.67041 477.50599 640.77323 476.23633 641.69922 C 475.00004 642.60088 474.14055 643.48167 472.9668 642.40625 C 470.48006 640.12786 472.59818 636.69235 470.85156 634.35156 C 470.12162 633.37334 469.18597 632.95195 468.25391 632.63086 L 462.34375 603.07422 C 462.95519 602.44583 463.87445 601.75841 465.08984 600.99023 z M 449.51758 602.15039 C 450.03679 603.08509 450.30921 604.0992 449.89648 604.62109 L 449.89453 604.62109 L 449.51758 602.15039 z M 431.66016 602.87109 C 431.6849 602.90054 431.69773 602.93151 431.72266 602.96094 C 436.00765 608.01902 439.5664 607.75746 442.23242 607.22266 L 427.85352 645.46289 C 422.85193 640.96077 418.12372 635.87108 413.80078 630.29297 L 431.66016 602.87109 z M 461.74609 603.68555 L 463.19922 610.95703 C 462.14484 606.99219 460.75497 605.90589 461.65234 603.78125 C 461.66491 603.75151 461.73083 603.71554 461.74609 603.68555 z M 444.94141 606.78906 C 445.30389 606.77939 445.62194 606.83222 445.89062 606.98438 C 447.79365 608.06149 444.83671 610.79021 449.94531 617.12109 C 450.41497 617.70311 450.85834 618.10185 451.28711 618.41602 L 451.46875 619.60547 L 441.84375 655.87891 C 437.22202 653.08201 432.72805 649.77168 428.44727 645.97656 L 443.07227 607.07812 C 443.75407 606.92621 444.43083 606.80269 444.94141 606.78906 z M 527.70898 608.06641 C 526.6654 613.53713 525.25396 618.8339 523.44727 623.84961 L 515.12109 617.41797 C 519.46532 614.22217 523.78219 611.04439 527.70898 608.06641 z M 463.36523 611.78516 L 467.47852 632.35742 C 466.13662 631.96621 464.94206 631.66449 464.61328 630.3418 C 463.44891 625.65729 464.68513 625.13929 464.0918 616.5918 C 463.9523 614.58226 463.66908 613.09917 463.36523 611.78516 z M 486.42188 615.16602 L 497.99219 625.7207 C 496.26368 627.00658 494.66782 628.20196 492.96875 629.45312 L 486.42188 615.16602 z M 514.48047 617.89453 L 523.16797 624.60547 C 521.05292 630.32082 518.43285 635.66421 515.30273 640.48633 L 501.19531 627.61523 C 505.93606 624.21402 510.07456 621.13134 514.48047 617.89453 z M 455.37109 618.97852 C 455.71215 618.95786 455.95095 619.05655 456.07422 619.46875 C 458.67533 628.16629 456.23499 634.79984 455.21484 639.46875 L 452.19531 619.69141 L 452.38086 618.99219 C 453.67537 619.44327 454.71904 619.01801 455.37109 618.97852 z M 451.74219 621.39844 L 454.85352 641.77539 C 454.77965 642.70881 454.80087 643.56944 455.10547 644.26758 C 455.14629 644.36113 455.23145 644.46493 455.2793 644.56055 L 458.12109 663.16406 C 452.80916 661.60685 447.56789 659.27383 442.49023 656.26562 L 451.74219 621.39844 z M 500.56055 628.06445 L 514.86328 641.11133 C 511.73832 645.80995 508.11455 649.99142 503.99609 653.52539 L 494.3418 632.45508 C 496.38537 631.00258 498.56445 629.49526 500.56055 628.06445 z M 493.74805 632.875 L 503.43164 654.01562 C 500.89208 656.13339 498.16723 658.00656 495.24805 659.59375 C 493.65273 660.46122 492.04466 661.20784 490.42773 661.86719 L 482.05664 641.12891 C 486.03962 638.34022 489.89817 635.60916 493.74805 632.875 z M 481.45898 641.55078 L 489.76172 662.12109 C 484.82843 664.04529 479.81106 665.062 474.7793 665.26953 L 471.42188 648.47461 C 471.74915 648.2814 472.06623 648.17802 472.39648 647.94922 C 475.54421 645.76846 478.3672 643.71406 481.45898 641.55078 z M 456.21094 645.99023 C 458.74821 649.16147 464.395 652.1657 470.76953 648.82422 L 474.06445 665.30078 C 468.98466 665.43282 463.89533 664.79051 458.86719 663.38867 L 456.21094 645.99023 z M 880.51367 690.74609 A 5.5 5.5 0 0 1 885.60156 696.62891 C 883.49901 725.61108 882.20695 756.80611 882.45508 785.53125 L 887.85547 779.80273 A 5.50055 5.50055 0 0 1 888.27734 778.74609 C 890.23876 776.77321 893.92011 771.7873 897.74414 766.19922 C 901.56817 760.61105 905.71053 754.30994 909.51562 748.97461 C 911.41821 746.3069 913.23068 743.88143 914.95117 741.84375 C 916.67166 739.80607 918.10364 738.16439 920.31641 736.82617 C 921.42279 736.15706 922.92468 735.35255 925.25195 735.64258 C 927.5793 735.9326 929.75387 737.97231 930.49414 739.57812 C 931.97468 742.78991 931.52311 745.02413 931.10352 748.40234 A 5.50055 5.50055 0 0 1 929.64844 751.49805 L 900.04492 782.90625 C 907.17459 790.63002 913.6125 800.08372 919.30273 806.66797 C 922.69356 810.59145 925.92847 813.26607 927.50391 813.9043 C 928.29163 814.22341 928.44453 814.1569 928.60742 814.10938 C 928.77032 814.06178 929.26835 813.88217 930.16211 812.72656 A 5.5 5.5 0 0 1 937.87891 811.74023 A 5.5 5.5 0 0 1 938.86523 819.45508 C 936.97417 821.90029 934.55794 823.83295 931.69141 824.66992 C 928.82479 825.50689 925.8322 825.09587 923.37305 824.09961 C 918.45459 822.10709 914.7883 818.26774 910.97852 813.85938 C 904.76898 806.67426 898.44779 797.62916 892.47656 790.93555 L 884.21094 799.70508 L 883.94727 825.01562 A 5.50055 5.50055 0 0 1 872.9668 825.41406 C 869.80037 787.35999 871.50186 738.9649 874.63086 695.83398 A 5.5 5.5 0 0 1 880.51367 690.74609 z M 848.72266 695.2832 C 851.2979 695.3122 852.98043 696.59504 854.00586 697.65039 C 855.03129 698.70574 855.62917 699.61773 856.08594 701.10156 A 5.50055 5.50055 0 0 1 856.2168 701.61914 C 856.98568 705.37908 856.11162 708.52367 855.09766 711.47852 C 854.08369 714.43327 852.8918 716.9421 851.1543 719.08203 A 5.50055 5.50055 0 0 1 841.54883 716.94531 C 840.53465 712.87448 839.87419 709.57245 839.86719 705.9668 A 5.50055 5.50055 0 0 1 840.02344 704.66016 C 840.60899 702.24773 841.27839 700.37489 842.50781 698.6582 C 843.73724 696.94152 846.14732 695.2542 848.72266 695.2832 z M 786.0918 713.875 C 786.3893 713.87565 786.68582 713.87997 786.98242 713.88867 C 788.5643 713.93607 790.132 714.10529 791.68164 714.41406 C 797.88011 715.64915 803.63643 719.607 807.03516 725.96875 A 5.50055 5.50055 0 0 1 807.51172 727.19336 C 811.19591 741.55482 806.34246 753.37288 798.91406 762.28711 C 796.90332 764.70007 794.71358 766.94701 792.45508 769.11133 C 794.0213 769.34635 795.56195 769.68034 797.03906 770.23242 C 805.83325 773.51936 811.69487 781.84977 814.56445 792.22266 A 5.50055 5.50055 0 0 1 814.69531 792.82617 C 816.99192 807.27068 810.21577 820.60773 800.75977 830.04883 C 791.30377 839.48992 779.10198 845.68402 767.61719 845.30273 A 5.5 5.5 0 0 1 762.30273 839.62305 A 5.5 5.5 0 0 1 767.98242 834.30859 C 774.85285 834.53668 785.32795 829.91399 792.98828 822.26562 C 800.56853 814.69733 805.30541 804.80096 803.85742 794.86719 C 801.58158 786.88926 797.67348 782.21172 793.1875 780.53516 C 788.6417 778.83613 782.30886 779.57169 773.64258 785.81445 A 5.50055 5.50055 0 0 1 766.62109 777.38281 C 774.94763 769.3922 784.34807 762.58216 790.46289 755.24414 C 796.45066 748.05859 799.46989 741.16862 796.94531 730.55469 C 795.00045 727.23842 792.80662 725.8538 789.53125 725.20117 C 786.04258 724.50604 781.18372 725.02691 775.66211 726.71094 C 767.73072 729.1299 758.81199 733.90782 750.18555 738.91992 C 751.402 739.64934 752.6095 740.50558 753.74609 741.65625 A 5.50055 5.50055 0 0 1 755.33203 745.59961 L 754.08398 835.02734 A 5.5 5.5 0 0 1 748.50781 840.45117 A 5.5 5.5 0 0 1 743.08398 834.875 L 744.28711 748.63281 C 742.42929 747.75417 739.36939 746.77616 735.30273 745.23047 A 5.50055 5.50055 0 0 1 734.34961 735.41992 C 745.65789 728.37811 759.36214 720.18203 772.45312 716.18945 C 776.74868 714.8794 781.01795 713.991 785.19727 713.88477 C 785.49579 713.87677 785.79429 713.8746 786.0918 713.875 z M 979.13281 727.10352 C 980.29421 727.08372 981.46811 727.17992 982.64258 727.4082 A 5.50055 5.50055 0 0 1 984.42188 728.08984 C 988.73773 730.67749 991.90772 734.98869 992.67969 739.91992 C 993.45166 744.85123 992.15131 749.98243 989.47656 755.2793 C 984.32617 765.47879 973.69688 776.96011 957.23438 790.06445 C 957.40527 793.03973 957.71989 795.87329 958.35547 798.2793 C 959.28058 801.78125 960.67371 804.48148 962.28516 806.23438 C 963.82402 807.90835 965.51289 808.82146 967.9707 809.17383 C 975.13493 808.86216 979.92233 806.59667 984.04297 802.89453 C 988.26497 799.10134 991.70358 793.58627 994.86914 787.20117 A 5.5 5.5 0 0 1 1002.2402 784.7168 A 5.5 5.5 0 0 1 1004.7246 792.08789 C 1001.2927 799.01014 997.28682 805.78238 991.39453 811.07617 C 985.50231 816.37003 977.60061 819.93548 967.79883 820.22266 A 5.50055 5.50055 0 0 1 967 820.1875 C 961.87462 819.58989 957.38599 817.15702 954.1875 813.67773 C 950.98901 810.19852 948.97335 805.83179 947.7207 801.08984 C 945.21547 791.60603 945.6289 780.37674 947.82031 769.43359 C 950.01173 758.49045 953.99904 747.88296 959.56836 739.83789 C 962.35302 735.81532 965.5475 732.39496 969.39648 730.03906 C 972.28328 728.27214 975.6487 727.16282 979.13281 727.10352 z M 979.58203 738.20898 C 978.16917 738.13198 976.80383 738.40269 975.13867 739.42188 C 973.09642 740.67182 970.78308 742.96241 968.61133 746.09961 C 964.26782 752.37393 960.55054 761.88079 958.60547 771.59375 C 958.37714 772.73396 958.25874 773.8716 958.08008 775.01367 C 969.27553 765.18074 976.47197 756.63022 979.6582 750.32031 C 981.66553 746.34523 982.09171 743.40469 981.8125 741.62109 C 981.58484 740.16687 980.8946 739.2015 979.58203 738.20898 z M 454.14648 744.24805 A 5.5 5.5 0 0 1 458.34961 744.48828 A 5.5 5.5 0 0 1 460.91016 751.83203 C 455.1762 763.70913 446.42574 778.99859 438.43945 791.70117 C 434.44637 798.05249 430.65745 803.73554 427.48242 808.05859 C 426.26679 809.7138 425.21996 810.97925 424.17383 812.22656 A 5.50055 5.50055 0 0 1 424.16211 812.70117 C 423.76225 815.98404 424.02203 826.13433 424.32031 837.00586 C 424.61859 847.87739 424.87067 859.86944 423.96094 869.25391 A 5.50055 5.50055 0 0 1 413.11914 869.92383 C 411.30581 861.82523 411.8726 849.85201 412.15234 838.2832 C 412.29178 832.49883 412.4131 826.92935 412.30078 822.48438 C 412.18847 818.03936 411.47706 814.36246 411.44336 814.28516 A 5.50055 5.50055 0 0 1 411.43164 812.52344 C 402.99107 804.03776 397.31558 796.03796 391.9043 788.91992 C 385.73787 780.80864 379.75701 773.75972 369.06055 766.84961 A 5.5 5.5 0 0 1 367.42578 759.24609 A 5.5 5.5 0 0 1 375.0293 757.60938 C 387.06296 765.38339 394.25778 773.84006 400.66016 782.26172 C 405.85464 789.09458 410.69206 795.89697 417.46484 803.00391 C 417.88287 802.45976 418.15729 802.17502 418.61719 801.54883 C 421.53643 797.57391 425.23041 792.04348 429.12695 785.8457 C 436.92017 773.45028 445.57487 758.30033 451.00586 747.05078 A 5.5 5.5 0 0 1 454.14648 744.24805 z M 842.14453 746.92773 A 5.5 5.5 0 0 1 847.5293 752.54102 C 846.99394 778.48665 842.99294 805.27275 848.36719 826.09375 A 5.5 5.5 0 0 1 844.41602 832.79297 A 5.5 5.5 0 0 1 837.7168 828.8418 C 831.48115 804.68353 836.01797 777.19041 836.53125 752.31445 A 5.5 5.5 0 0 1 842.14453 746.92773 z M 662.25391 765.24219 C 667.33395 765.24619 673.26913 767.66915 676.1875 773.32031 A 5.5 5.5 0 0 1 673.82422 780.73242 A 5.5 5.5 0 0 1 666.41406 778.36914 C 665.59406 776.78124 664.28272 776.24419 662.24414 776.24219 C 660.20556 776.24019 658.16997 777.53151 658.07227 777.66992 C 652.80924 785.12456 649.43443 789.33164 645.91406 798.74023 C 642.39382 808.14883 638.7963 822.97525 634.15234 850.47461 A 5.50055 5.50055 0 0 1 623.37305 850.80664 C 617.44027 825.34124 616.58673 798.64576 618.37891 771.39258 A 5.5 5.5 0 0 1 624.22852 766.26562 A 5.5 5.5 0 0 1 629.35547 772.11328 C 628.35597 787.31246 628.36707 802.15162 629.48047 816.61328 C 631.55732 807.471 633.54868 800.40456 635.61328 794.88672 C 639.58998 784.25852 643.97133 778.57059 649.08594 771.32617 C 652.21562 766.89312 657.17375 765.23819 662.25391 765.24219 z M 543.80859 774.54883 A 5.5 5.5 0 0 1 549.27344 780.08398 C 549.20234 791.44217 547.7142 804.35449 546.91602 815.89844 C 546.1177 827.44238 546.38202 837.81424 548.12109 842.15039 C 548.80064 843.84462 549.78053 844.2516 551.84766 844.1875 C 554.16514 843.94971 555.02058 843.42728 557.375 841.23242 C 568.45589 830.90246 574.25448 804.07417 581.4082 779.91797 A 5.50055 5.50055 0 0 1 592.18164 781.47656 C 592.18664 795.77628 591.59555 811.18691 592.23633 823.51758 C 592.55671 829.68285 593.20658 835.0809 594.23633 838.95312 C 595.26608 842.82548 596.7333 844.8001 597.39453 845.22852 A 5.5 5.5 0 0 1 599.01953 852.83398 A 5.5 5.5 0 0 1 591.41406 854.45898 C 587.00425 851.60187 584.97308 846.92402 583.60547 841.78125 C 582.23786 836.63848 581.59136 830.6568 581.25 824.08789 C 581.199 823.10055 581.24403 821.94583 581.20703 820.93359 C 577.36895 832.07762 572.46788 842.20096 564.87695 849.27734 C 561.68351 852.2545 557.65664 854.71904 552.72266 855.17773 A 5.50055 5.50055 0 0 1 552.44531 855.19531 C 546.7818 855.4357 540.39048 852.4251 537.91211 846.24609 C 534.5458 837.85342 535.12026 827.04096 535.94336 815.13867 C 536.76646 803.23638 538.20814 790.43913 538.27344 780.01367 A 5.5 5.5 0 0 1 543.80859 774.54883 z M 494.16797 776.69531 C 495.08273 776.69731 496.01206 776.75951 496.95508 776.88281 C 507.14752 778.02565 514.29752 785.27324 517.43359 793.97656 C 520.57691 802.69957 520.62989 813.02464 518.72461 823.19336 C 516.81933 833.36208 512.9025 843.3848 507.18359 851.33203 C 501.46483 859.27927 493.58983 865.45203 483.97266 865.92188 A 5.50055 5.50055 0 0 1 483.88086 865.92383 C 479.08217 866.07851 474.58071 864.18983 471.36133 861.15625 C 468.1418 858.12267 466.02016 854.15234 464.54688 849.75391 C 461.60006 840.9569 461.1589 830.15873 462.56055 819.42578 C 463.9622 808.69284 467.21515 798.06542 472.67578 789.84766 C 477.45396 782.65699 484.66863 777.07796 493.25781 776.71289 C 493.55932 776.70009 493.86305 776.69461 494.16797 776.69531 z M 204.80859 786.62695 L 16.589844 811.79883 C 180.06135 966.82264 185.53109 869.48478 77.804688 1082.4004 L 287.19141 1054.9395 C 181.88294 981.97014 209.51638 1011.1721 204.80859 786.62695 z M 494.0625 787.67578 C 493.89947 787.67278 493.73699 787.67373 493.57617 787.67773 C 489.07334 787.79235 485.42418 790.53854 481.83789 795.93555 C 477.73927 802.10342 474.69747 811.4259 473.4668 820.84961 C 472.23612 830.27332 472.82667 839.8417 474.97656 846.25977 C 476.05151 849.46866 477.49282 851.81849 478.9043 853.14844 C 480.30383 854.46714 481.49991 854.97843 483.48438 854.92383 C 488.6106 854.65286 493.75485 851.1583 498.25391 844.90625 C 502.76711 838.63435 506.27888 829.89513 507.91406 821.16797 C 509.54925 812.44081 509.25618 803.73519 507.08398 797.70703 C 504.91193 791.67901 501.79946 788.47187 495.69336 787.80469 A 5.50055 5.50055 0 0 1 495.56055 787.78906 C 495.05022 787.72086 494.55159 787.68346 494.0625 787.67578 z M 316.74805 973.70508 L 223.30078 988.26758 L 293.28516 1041.666 L 296.11719 991.91016 L 319.58008 979.36914 L 316.74805 973.70508 z " /></svg>
