<?xml version="1.0" encoding="UTF-8" standalone="no"?>
<!-- Created with Inkscape (http://www.inkscape.org/) -->

<svg
   version="1.1"
   id="svg46"
   width="999.99994"
   height="455.99997"
   viewBox="0 0 1333.3332 1333.3332"
   sodipodi:docname="YOUR_BIKE.jpg.2023_07_11_20_16_52.0.svg"
   inkscape:version="1.2.2 (b0a8486541, 2022-12-01)"
   xmlns:inkscape="http://www.inkscape.org/namespaces/inkscape"
   xmlns:sodipodi="http://sodipodi.sourceforge.net/DTD/sodipodi-0.dtd"
   xmlns="http://www.w3.org/2000/svg"
   xmlns:svg="http://www.w3.org/2000/svg">
  <defs
     id="defs50" />
  <sodipodi:namedview
     id="namedview48"
     pagecolor="#ffffff"
     bordercolor="#000000"
     borderopacity="0.25"
     inkscape:showpageshadow="2"
     inkscape:pageopacity="0.0"
     inkscape:pagecheckerboard="0"
     inkscape:deskcolor="#d1d1d1"
     showgrid="false"
     inkscape:zoom="0.61800004"
     inkscape:cx="618.932"
     inkscape:cy="709.54688"
     inkscape:window-width="1920"
     inkscape:window-height="1021"
     inkscape:window-x="0"
     inkscape:window-y="32"
     inkscape:window-maximized="1"
     inkscape:current-layer="g52" />
  <g
     inkscape:groupmode="layer"
     inkscape:label="Image"
     id="g52">
    <path
       id="path362"
       style="fill:#000000;stroke-width:2.25154"
       d="m 2024.3183,0 -448.2554,78.575466 c 64.3483,33.911554 110.5215,46.445034 149.5827,69.723204 18.1511,10.81694 27.6184,24.21253 32.1548,42.8717 18.2503,75.06141 2.7162,128.44375 7.6121,437.42012 l 363.2423,1.28849 c -93.6715,-130.36406 -147.698,-176.30308 -214.2531,-268.0308 -8.2387,-11.3548 -10.5754,-28.25642 -5.9325,-41.38537 C 1945.3287,216.2428 1979.3623,135.75115 2024.3183,0 Z m -488.1898,98.540364 -5.7958,94.674876 145.5547,-25.1188 1.2886,-16.74588 z m 202.4414,88.949276 -2043.88103,346.11373 c -22.57989,2.81781 -37.28513,16.01557 -40.9852,43.72047 2.46569,86.29709 -13.12952,485.00956 5.46617,517.79846 L 1734.9286,779.98062 Z M 1149.8432,453.9285 a 12.383506,12.383506 0 0 1 11.4557,13.24546 c -4.7341,65.25491 -7.6432,135.49158 -7.0845,200.16778 l 12.1592,-12.89804 a 12.384744,12.384744 0 0 1 0.9499,-2.37907 c 4.4162,-4.4421 12.7049,-15.66798 21.3149,-28.24988 8.61,-12.582 17.9367,-26.76919 26.5041,-38.78201 4.2837,-6.00645 8.3646,-11.46754 12.2383,-16.05546 3.8739,-4.58792 7.0979,-8.28424 12.0801,-11.29732 2.4911,-1.50653 5.8727,-3.31791 11.1127,-2.6649 5.2401,0.65299 10.1363,5.24542 11.8029,8.86106 3.3336,7.23149 2.3168,12.26187 1.3721,19.86812 a 12.384744,12.384744 0 0 1 -3.2762,6.97014 l -66.6537,70.71705 c 16.0529,17.3905 30.5481,38.6758 43.3599,53.50061 7.6346,8.83396 14.9182,14.85594 18.4654,16.29293 1.7735,0.7185 2.1179,0.56882 2.4846,0.46176 0.3667,-0.10713 1.488,-0.51157 3.5004,-3.11349 a 12.383506,12.383506 0 0 1 17.3747,-2.22078 12.383506,12.383506 0 0 1 2.2208,17.37034 c -4.2578,5.50553 -9.6981,9.85698 -16.1522,11.74147 -6.4544,1.88447 -13.1922,0.95904 -18.7292,-1.28408 -11.0741,-4.48625 -19.3289,-13.13066 -27.9069,-23.05636 -13.9809,-16.17763 -28.2134,-36.54302 -41.658,-51.61407 l -18.6104,19.74501 -0.5937,56.98785 a 12.384744,12.384744 0 0 1 -24.723,0.89713 c -7.1293,-85.6808 -3.2983,-194.64406 3.7467,-291.75561 a 12.383506,12.383506 0 0 1 13.2454,-11.45564 z m -71.579,10.21552 c 5.7984,0.0652 9.5867,2.95367 11.8954,5.32984 2.3088,2.37617 3.655,4.42956 4.6835,7.77049 a 12.384744,12.384744 0 0 1 0.2946,1.16536 c 1.7312,8.46566 -0.2368,15.54586 -2.5198,22.19884 -2.283,6.65283 -4.9666,12.3015 -8.8787,17.11965 a 12.384744,12.384744 0 0 1 -21.6271,-4.81092 c -2.2834,-9.16573 -3.7706,-16.60026 -3.7863,-24.71863 a 12.384744,12.384744 0 0 1 0.3518,-2.94196 c 1.3184,-5.43169 2.8256,-9.64849 5.5937,-13.51369 2.768,-3.86519 8.1944,-7.66426 13.9929,-7.59898 z m -141.01612,41.86031 c 0.66983,0.001 1.33742,0.0112 2.00525,0.0309 3.56167,0.1068 7.09145,0.48773 10.58049,1.18294 13.95618,2.78086 26.91679,11.69208 34.56918,26.01593 a 12.384744,12.384744 0 0 1 1.07295,2.75727 c 8.2952,32.33555 -2.6326,58.94434 -19.35805,79.01521 -4.52723,5.43288 -9.45759,10.49198 -14.54267,15.36505 3.52643,0.52915 6.99529,1.28116 10.32102,2.52419 19.80066,7.40069 32.99818,26.15693 39.45925,49.51205 a 12.384744,12.384744 0 0 1 0.2946,1.35883 c 5.1709,32.52256 -10.08575,62.55141 -31.37643,83.80856 -21.29068,21.25711 -48.76354,35.20336 -74.62207,34.34487 a 12.383506,12.383506 0 0 1 -11.96576,-12.78806 12.383506,12.383506 0 0 1 12.78806,-11.96578 c 15.46913,0.51357 39.05419,-9.89463 56.30185,-27.1153 17.06739,-17.04042 27.73261,-39.32244 24.47239,-61.68885 -5.12418,-17.96274 -13.92341,-28.4943 -24.0238,-32.26923 -10.23506,-3.82545 -24.4937,-2.16936 -44.00634,11.88657 a 12.384744,12.384744 0 0 1 -15.80922,-18.9842 c 18.74763,-17.99131 39.91311,-33.32429 53.68095,-49.84625 13.48181,-16.17868 20.27963,-31.69163 14.59549,-55.58946 -4.379,-7.46673 -9.31846,-10.58427 -16.69318,-12.05369 -7.85483,-1.56512 -18.79472,-0.39235 -31.22701,3.39932 -17.85794,5.4464 -37.93876,16.20404 -57.36157,27.48909 2.73885,1.64232 5.45754,3.57017 8.01664,6.16096 a 12.384744,12.384744 0 0 1 3.57089,8.87867 l -2.81012,201.3507 a 12.383506,12.383506 0 0 1 -12.55498,12.212 12.383506,12.383506 0 0 1 -12.21203,-12.55499 l 2.70897,-194.17833 c -4.18305,-1.97829 -11.07245,-4.18034 -20.22881,-7.66053 a 12.384744,12.384744 0 0 1 -2.1459,-22.08891 c 25.46113,-15.85503 56.31666,-34.30881 85.79181,-43.2983 9.67159,-2.94964 19.28404,-4.94992 28.69404,-5.18909 0.67208,-0.018 1.34416,-0.0235 2.01411,-0.0226 z m 434.64072,29.78463 c 2.6149,-0.0446 5.2581,0.17201 7.9025,0.68601 a 12.384744,12.384744 0 0 1 4.0061,1.53474 c 9.7174,5.82623 16.8547,15.53302 18.5929,26.63598 1.738,11.10307 -1.1896,22.65621 -7.212,34.58236 -11.5964,22.96469 -35.5285,48.81522 -72.5948,78.32039 0.3848,6.69898 1.0931,13.07887 2.5242,18.49613 2.0829,7.88486 5.2197,13.96447 8.8479,17.91123 3.4648,3.76907 7.2673,5.82493 12.8012,6.61829 16.1306,-0.70174 26.9097,-5.80258 36.1875,-14.13813 9.5061,-8.54059 17.2481,-20.95799 24.3756,-35.33433 a 12.383506,12.383506 0 0 1 16.5963,-5.59368 12.383506,12.383506 0 0 1 5.5937,16.59636 c -7.727,15.58584 -16.7466,30.83372 -30.0132,42.75299 -13.2668,11.91938 -31.0576,19.94716 -53.1268,20.59376 a 12.384744,12.384744 0 0 1 -1.7986,-0.0793 c -11.5401,-1.34554 -21.6465,-6.82326 -28.848,-14.65704 -7.2015,-7.83368 -11.7399,-17.66551 -14.5603,-28.34223 -5.6407,-21.35331 -4.7098,-46.63645 0.2242,-71.27552 4.9341,-24.63906 13.9118,-48.5222 26.4513,-66.6361 6.2699,-9.057 13.4623,-16.7581 22.1286,-22.06254 6.4997,-3.97829 14.077,-6.47598 21.9217,-6.6095 z m 1.0114,25.00447 c -3.181,-0.17337 -6.2552,0.43616 -10.0043,2.7309 -4.5982,2.81438 -9.8069,7.97167 -14.6967,15.03522 -9.7796,14.12698 -18.1492,35.532 -22.5287,57.40125 -0.5141,2.56723 -0.7806,5.12867 -1.1829,7.70009 25.2071,-22.13936 41.4101,-41.39117 48.5842,-55.59824 4.5196,-8.95015 5.4792,-15.57083 4.8505,-19.58671 -0.5126,-3.27429 -2.0667,-5.4478 -5.0221,-7.68251 z M 189.85763,574.39066 a 12.383506,12.383506 0 0 1 9.46354,0.5409 12.383506,12.383506 0 0 1 5.7652,16.5348 c -12.91028,26.74191 -32.61236,61.16671 -50.59386,89.76723 -8.99067,14.30031 -17.52153,27.09588 -24.67027,36.82948 -2.73705,3.7268 -5.09403,6.57601 -7.44943,9.38439 a 12.384744,12.384744 0 0 1 -0.0264,1.06862 c -0.90031,7.39152 -0.31539,30.24531 0.3562,54.72314 0.6716,24.47782 1.23916,51.47835 -0.80913,72.60799 a 12.384744,12.384744 0 0 1 -24.410826,1.50835 c -4.082788,-18.23444 -2.806638,-45.19257 -2.176788,-71.24035 0.31394,-13.02385 0.58711,-25.56367 0.33422,-35.57178 -0.25287,-10.00818 -1.85465,-18.28688 -1.93053,-18.46094 a 12.384744,12.384744 0 0 1 -0.0263,-3.96658 c -19.00441,-19.10598 -31.78291,-37.11778 -43.96672,-53.14444 -13.884,-18.26298 -27.35012,-34.13383 -51.4337805,-49.69233 a 12.383506,12.383506 0 0 1 -3.6807399,-17.11969 12.383506,12.383506 0 0 1 17.1196804,-3.68512 c 27.09448,17.50362 43.29381,36.54407 57.70907,55.50589 11.69569,15.38458 22.58723,30.7004 37.836524,46.70202 0.9412,-1.22518 1.55907,-1.86629 2.59456,-3.27619 6.57287,-8.94971 14.88991,-21.40173 23.66321,-35.35632 17.54681,-27.90901 37.03327,-62.01962 49.26139,-87.34858 a 12.383506,12.383506 0 0 1 7.07127,-6.31049 z m 873.59577,6.03344 a 12.383506,12.383506 0 0 1 12.1239,12.63857 c -1.2053,58.41802 -10.2137,118.72783 1.8867,165.60742 a 12.383506,12.383506 0 0 1 -8.8963,15.08362 12.383506,12.383506 0 0 1 -15.0837,-8.89625 c -14.0398,-54.39361 -3.8249,-116.29538 -2.6692,-172.30491 a 12.383506,12.383506 0 0 1 12.6386,-12.12845 z m -405.03223,41.23587 c 11.43807,0.009 24.80139,5.46433 31.37213,18.18826 a 12.383506,12.383506 0 0 1 -5.32101,16.68871 12.383506,12.383506 0 0 1 -16.68433,-5.32103 c -1.84619,-3.57524 -4.79882,-4.78444 -9.38872,-4.78892 -4.59001,-0.005 -9.17319,2.90296 -9.39318,3.21459 -11.84989,16.78454 -19.4485,26.25683 -27.37471,47.44079 -7.9261,21.18397 -16.02608,54.56607 -26.48214,116.48237 a 12.384744,12.384744 0 0 1 -24.27009,0.74758 C 557.52127,756.97557 555.59947,696.86986 559.63465,635.50785 a 12.383506,12.383506 0 0 1 13.17062,-11.54359 12.383506,12.383506 0 0 1 11.54356,13.16628 c -2.25041,34.22174 -2.22537,67.6326 0.28144,100.19384 4.67621,-20.58434 9.15985,-36.49463 13.80829,-48.91837 8.95383,-23.92995 18.81852,-36.73647 30.33432,-53.04769 7.04674,-9.98128 18.21011,-13.70737 29.64829,-13.69835 z m -266.68511,20.95431 a 12.383506,12.383506 0 0 1 12.30437,12.46266 c -0.1601,25.57357 -3.51063,54.64612 -5.30786,80.63794 -1.79745,25.99179 -1.20239,49.34444 2.71328,59.1075 1.53003,3.81463 3.73631,4.73097 8.39055,4.58664 5.21797,-0.5354 7.14398,-1.71168 12.44507,-6.65352 24.9492,-23.25844 38.00484,-83.66333 54.11188,-138.05233 a 12.384744,12.384744 0 0 1 24.25689,3.50924 c 0.0125,32.19655 -1.3196,66.89417 0.12333,94.65732 0.72128,13.88146 2.18451,26.03529 4.50307,34.75384 2.31856,8.7188 5.62199,13.16475 7.11076,14.12935 a 12.383506,12.383506 0 0 1 3.65884,17.12406 12.383506,12.383506 0 0 1 -17.12408,3.65876 c -9.92898,-6.43298 -14.50219,-16.96524 -17.58138,-28.54452 -3.07933,-11.57924 -4.53497,-25.04713 -5.30345,-39.83741 -0.11461,-2.22304 -0.0137,-4.82295 -0.0971,-7.10205 -8.64164,25.09136 -19.67657,47.88441 -36.76789,63.81725 -7.19023,6.70324 -16.25677,12.25225 -27.36594,13.28502 a 12.384744,12.384744 0 0 1 -0.62445,0.0396 c -12.75174,0.54124 -27.14203,-6.23726 -32.72218,-20.14959 -7.57942,-18.89656 -6.28599,-43.24119 -4.43274,-70.03981 1.85324,-26.79864 5.09926,-55.6121 5.24627,-79.08558 a 12.383506,12.383506 0 0 1 12.46266,-12.30435 z m -111.76818,4.83292 c 2.05962,0.005 4.15206,0.14455 6.2753,0.42216 22.94884,2.57316 39.04726,18.89138 46.10834,38.48737 7.07732,19.64034 7.19662,42.88758 2.90679,65.783 -4.28983,22.8954 -13.10876,45.4619 -25.98516,63.35553 -12.87612,17.89366 -30.60692,31.79184 -52.26048,32.84973 a 12.384744,12.384744 0 0 1 -0.2067,0.005 c -10.80447,0.34827 -20.93965,-3.9042 -28.18831,-10.73445 -7.24892,-6.83023 -12.0258,-15.76955 -15.34305,-25.67289 -6.63491,-19.80695 -7.62818,-44.1194 -4.47231,-68.2852 3.15588,-24.16578 10.47998,-48.09378 22.77491,-66.59652 10.75829,-16.19012 27.0024,-28.75157 46.3414,-29.57354 0.67887,-0.0288 1.36273,-0.0412 2.04927,-0.0396 z m -651.50617,22.36155 -423.78333,56.67566 c 368.06378,349.04329 380.37915,129.88261 137.8281,609.27199 l 471.444,-61.8294 c -237.10694,-164.2939 -174.88896,-98.5444 -185.48877,-604.11825 z m 651.26869,2.36148 c -0.36706,-0.007 -0.73289,-0.005 -1.09499,0.005 -10.13839,0.25807 -18.35459,6.44125 -26.42928,18.59286 -9.22824,13.88733 -16.07698,34.8772 -18.84789,56.09519 -2.77095,21.21799 -1.44129,42.76157 3.39928,57.21215 2.4203,7.22504 5.66548,12.51572 8.84349,15.51016 3.1511,2.96913 5.84415,4.12031 10.31227,3.99737 11.542,-0.61009 23.12444,-8.47819 33.25429,-22.55504 10.16173,-14.12155 18.06858,-33.79817 21.75028,-53.44783 3.68171,-19.6497 3.02184,-39.25075 -1.86897,-52.82342 -4.89054,-13.57244 -11.89828,-20.7934 -25.64652,-22.29558 a 12.384744,12.384744 0 0 1 -0.29902,-0.0352 c -1.14905,-0.15356 -2.27173,-0.23776 -3.37294,-0.25505 z m -399.23176,418.85367 -210.4009,32.7881 157.5731,120.229 6.37646,-112.0276 52.82779,-28.2366 z" />
  </g>
</svg>
